<?xml version="1.0" encoding="UTF-8" standalone="no"?>
<!-- Created with Inkscape (http://www.inkscape.org/) -->

<svg
   width="107.26012mm"
   height="78.74971mm"
   viewBox="0 0 107.26012 78.74971"
   version="1.1"
   id="svg1"
   xml:space="preserve"
   inkscape:version="1.4 (e7c3feb100, 2024-10-09)"
   sodipodi:docname="fridgepitcher.svg"
   xmlns:inkscape="http://www.inkscape.org/namespaces/inkscape"
   xmlns:sodipodi="http://sodipodi.sourceforge.net/DTD/sodipodi-0.dtd"
   xmlns="http://www.w3.org/2000/svg"
   xmlns:svg="http://www.w3.org/2000/svg"><sodipodi:namedview
     id="namedview1"
     pagecolor="#ffffff"
     bordercolor="#000000"
     borderopacity="0.25"
     inkscape:showpageshadow="2"
     inkscape:pageopacity="0.0"
     inkscape:pagecheckerboard="0"
     inkscape:deskcolor="#d1d1d1"
     inkscape:document-units="mm"
     inkscape:zoom="3.4337013"
     inkscape:cx="195.56157"
     inkscape:cy="144.15931"
     inkscape:window-width="5120"
     inkscape:window-height="1371"
     inkscape:window-x="0"
     inkscape:window-y="0"
     inkscape:window-maximized="1"
     inkscape:current-layer="layer1" /><defs
     id="defs1" /><g
     inkscape:label="Layer 1"
     inkscape:groupmode="layer"
     id="layer1"
     transform="translate(-55.864807,-111.03612)"><path
       id="path1"
       style="opacity:0.5;fill:#000000;stroke-width:0.264583"
       d="m 108.26213,111.03612 c -10.017132,0 -33.518761,1.00149 -41.378357,1.00149 -7.859593,0 -8.553483,7.16648 -8.553483,7.16648 l -0.153996,7.70548 c -0.147916,7.39579 -1.771985,9.63145 -1.771985,9.63145 0,0 6.318477,4.85476 6.318477,13.56196 0,8.7072 -6.857979,13.56145 -6.857979,13.56145 1.373906,3.50707 1.979827,5.64233 2.090312,9.24543 0.110485,3.60311 0.04952,5.94533 0.221175,8.55452 0.385276,5.85617 5.702394,6.5493 7.936983,6.78046 2.234591,0.23117 33.287448,1.54099 45.076833,1.54099 11.7894,0 33.51877,-0.77021 40.68486,-1.15548 7.16611,-0.38528 7.31724,-4.52001 7.47448,-5.85649 0.15412,-1.30993 0.6165,-18.56993 0.6165,-18.56993 h 3.15898 v -27.8939 h -3.15898 c 0,0 -0.15434,-10.24829 -0.38551,-16.79795 -0.23117,-6.54966 -4.31488,-7.39736 -6.54947,-7.55147 -2.23459,-0.15411 -34.75171,-0.92449 -44.76884,-0.92449 z m 1.233,30.66789 a 8.7071981,8.7071981 0 0 1 8.70696,8.70696 8.7071981,8.7071981 0 0 1 -8.70696,8.70748 8.7071981,8.7071981 0 0 1 -8.70748,-8.70748 8.7071981,8.7071981 0 0 1 8.70748,-8.70696 z" /></g></svg>
