<?xml version="1.0" encoding="UTF-8" standalone="no"?>
<!-- Created with Inkscape (http://www.inkscape.org/) -->

<svg
   width="107.26012mm"
   height="78.74971mm"
   viewBox="0 0 107.26012 78.74971"
   version="1.1"
   id="svg1"
   xml:space="preserve"
   inkscape:version="1.4 (e7c3feb100, 2024-10-09)"
   sodipodi:docname="fridgepitcher2.svg"
   xmlns:inkscape="http://www.inkscape.org/namespaces/inkscape"
   xmlns:sodipodi="http://sodipodi.sourceforge.net/DTD/sodipodi-0.dtd"
   xmlns="http://www.w3.org/2000/svg"
   xmlns:svg="http://www.w3.org/2000/svg"><sodipodi:namedview
     id="namedview1"
     pagecolor="#ffffff"
     bordercolor="#000000"
     borderopacity="0.25"
     inkscape:showpageshadow="2"
     inkscape:pageopacity="0.0"
     inkscape:pagecheckerboard="0"
     inkscape:deskcolor="#d1d1d1"
     inkscape:document-units="mm"
     inkscape:zoom="3.4337013"
     inkscape:cx="195.41595"
     inkscape:cy="144.15931"
     inkscape:window-width="5120"
     inkscape:window-height="1371"
     inkscape:window-x="0"
     inkscape:window-y="0"
     inkscape:window-maximized="1"
     inkscape:current-layer="layer1" /><defs
     id="defs1" /><g
     inkscape:label="Layer 1"
     inkscape:groupmode="layer"
     id="layer1"
     transform="translate(-55.864807,-111.03612)"><path
       id="path2"
       style="opacity:0.5;fill:#000000;stroke-width:0.258755"
       d="m 108.28486,112.03606 c -9.830334,0 -32.893269,0.97617 -40.606304,0.97617 -6.788374,0 -8.394319,6.98458 -8.394319,6.98458 l -0.150896,7.50962 c -0.01384,0.68713 -0.04609,1.27946 -0.07855,1.86862 h 1.302246 c 0.0165,-0.42439 0.03689,-0.81679 0.04651,-1.29449 l 0.147278,-7.32204 c 0,0 0.66421,-6.8094 8.183996,-6.8094 7.519788,0 30.005258,-0.95136 39.589319,-0.95136 9.58403,0 40.69506,0.73208 42.83304,0.8785 2.13798,0.14644 6.04511,0.95186 6.26629,7.17527 0.22117,6.22341 0.36897,15.96078 0.36897,15.96078 v 26.50484 c 0,0 -0.44217,16.40024 -0.58963,17.64492 -0.15045,1.26991 -0.29521,5.19843 -7.1515,5.56452 -6.85626,0.36608 -27.64611,1.09812 -38.92579,1.09812 -11.279691,0 -40.990143,-1.24485 -43.128121,-1.46451 -2.137977,-0.21964 -7.225234,-0.87804 -7.593852,-6.4425 -0.164233,-2.47923 -0.105648,-4.70456 -0.211357,-8.12818 -0.0039,-0.12715 -0.0063,-0.22035 -0.0098,-0.34262 h -1.292428 c 0.0082,0.3017 0.0161,0.55983 0.02636,0.89194 0.108425,3.51161 0.433858,5.63991 0.602315,8.18285 0.337097,5.08863 5.210478,6.5372 7.403398,6.76249 2.192921,0.2253 32.66703,1.50172 44.236575,1.50172 11.56955,0 32.89378,-0.75053 39.92624,-1.12603 5.95678,-0.31806 7.18065,-4.40513 7.33496,-5.70767 0.15125,-1.27667 0.60513,-18.09812 0.60513,-18.09812 v -27.18593 c 0,0 -0.37827,-9.97073 -0.37827,-16.3711 0,-4.77014 -4.2346,-7.20955 -6.42752,-7.35975 -2.19292,-0.15019 -34.10394,-0.90124 -43.93427,-0.90124 z"
       sodipodi:nodetypes="ssccccccsscsccssscssccssssssccssss" /></g></svg>
