<?xml version="1.0" encoding="UTF-8" standalone="no"?>
<!-- Created with Inkscape (http://www.inkscape.org/) -->

<svg
   width="186.07704mm"
   height="186.0601mm"
   viewBox="0 0 186.07704 186.0601"
   version="1.1"
   id="svg1"
   xml:space="preserve"
   xmlns="http://www.w3.org/2000/svg"
   xmlns:svg="http://www.w3.org/2000/svg"><defs
     id="defs1" /><g
     id="layer1"
     transform="translate(-16.333879,-39.511179)"><path
       id="path2"
       style="fill:#000000;stroke:none;stroke-width:28.9782"
       d="m 105.60727,39.586982 a 93.038559,93.038559 0 0 0 -89.197178,96.727408 93.038559,93.038559 0 0 0 28.252706,62.79936 c 0.448467,0.43097 0.496493,0.52788 1.200553,1.1916 1.173483,1.10625 2.177848,1.97951 3.205452,2.87143 a 93.038559,93.038559 0 0 0 4.32181,3.50372 c 0.403826,0.30716 0.722104,0.58406 1.1596,0.90829 1.665838,1.23453 3.770066,2.61255 5.837209,3.90058 a 93.038559,93.038559 0 0 0 3.503022,2.09705 c 2.22764,1.24443 4.601493,2.39016 7.125815,3.52463 a 93.038559,93.038559 0 0 0 5.059205,2.18555 c 0.0512,0.0206 0.08377,0.0375 0.135273,0.0581 l 0.861115,0.34474 0.208601,-0.008 a 93.038559,93.038559 0 0 0 35.856557,5.82108 93.038559,93.038559 0 0 0 89.19769,-96.72744 93.038559,93.038559 0 0 0 -96.72743,-89.197688 z M 78.916631,54.193418 c 0.167089,-0.03143 0.221187,-0.0028 0.291088,0.06165 0.216881,0.200003 0.08487,0.373591 -0.609929,0.800483 -0.32482,0.199574 -0.879806,0.552914 -1.232718,0.785365 -0.352903,0.232452 -0.847027,0.513014 -1.098093,0.623204 -0.402403,0.176609 -2.000714,0.639039 -2.860671,0.827505 -0.553624,0.121333 -0.695408,0.378683 -0.779999,1.415583 -0.0696,0.853181 -0.09187,0.932437 -0.333925,1.179266 -0.4782,0.487614 -1.217626,1.178342 -1.603146,1.497535 -0.210073,0.173933 -0.393512,0.349441 -0.407764,0.390442 -0.05985,0.172261 -1.252391,1.087273 -1.534403,1.177198 -0.168671,0.05379 -0.53282,0.167336 -0.809017,0.252052 -0.276199,0.08471 -0.653123,0.200642 -0.837229,0.257849 -0.795597,0.247219 -1.092241,0.977934 -0.892607,2.197995 l 0.119621,0.731631 -0.220886,0.267023 c -0.121717,0.146607 -0.276124,0.329978 -0.342923,0.407985 -0.06675,0.078 -0.356264,0.465246 -0.643193,0.860273 -0.28693,0.395025 -0.676009,0.9059 -0.864778,1.135597 -0.188769,0.229697 -0.341578,0.453956 -0.3398,0.49785 0.0084,0.207728 -0.641068,0.726677 -1.149231,0.918521 -0.298375,0.112642 -0.654866,0.248504 -0.792511,0.302068 -0.137645,0.05357 -0.368628,0.138295 -0.513201,0.187836 -0.144573,0.04954 -0.365172,0.235656 -0.49008,0.413945 -0.207882,0.296741 -0.225447,0.385077 -0.199741,1.044533 0.02251,0.589755 0.06662,0.791964 0.243756,1.115013 0.202867,0.369965 0.208729,0.406846 0.08698,0.589691 -0.227896,0.342279 -0.558571,0.883962 -0.662021,1.084978 -0.05511,0.107093 -0.144971,0.282695 -0.199883,0.389779 -0.05488,0.107084 -0.194552,0.351061 -0.310593,0.54218 -0.116042,0.191119 -0.316229,0.561225 -0.444561,0.822748 -0.276858,0.564171 -0.527703,0.745355 -1.378866,0.995056 -0.348775,0.102318 -0.738285,0.266302 -0.864976,0.364479 -0.265715,0.205904 -0.540342,0.802015 -0.585694,1.271178 -0.0408,0.42169 0.243431,1.131434 0.493109,1.231623 0.101644,0.04079 0.212659,0.169475 0.246896,0.285833 0.03427,0.116357 0.09725,0.23131 0.140162,0.255503 0.04293,0.02419 -0.01002,0.227979 -0.118205,0.452672 -0.108176,0.224693 -0.419258,1.035379 -0.690931,1.80142 -0.271674,0.76603 -0.5428,1.473781 -0.602419,1.573375 -0.05962,0.09956 -0.341036,0.283802 -0.625779,0.409096 -0.707461,0.311303 -1.089723,0.726847 -1.198319,1.302712 -0.04684,0.248559 -0.08183,0.534532 -0.07769,0.635667 0.01516,0.37091 0.363926,1.016773 0.688828,1.275417 0.359949,0.286549 0.355277,0.227148 0.09458,1.249834 -0.08403,0.329639 -0.182849,0.848497 -0.219661,1.152915 -0.0368,0.304418 -0.126808,0.785633 -0.200266,1.069897 -0.07344,0.284265 -0.149799,0.745408 -0.169535,1.024175 -0.03232,0.457171 -0.08017,0.660969 -0.250581,1.066246 -0.02991,0.07112 -0.251559,0.238284 -0.492311,0.371625 -1.110922,0.615269 -1.404697,1.538675 -0.849246,2.668432 0.148198,0.30143 0.303768,0.455819 0.683759,0.677754 0.440831,0.257501 0.487873,0.310762 0.449564,0.513979 -0.0582,0.308318 -0.159364,3.398526 -0.134664,4.107266 0.01883,0.53524 0.002,0.59271 -0.271947,0.92178 -0.16073,0.19307 -0.338021,0.35297 -0.393676,0.35523 -0.191083,0.008 -0.545624,0.50772 -0.651198,0.918 -0.161956,0.62936 -0.111737,1.10394 0.167026,1.57015 0.247352,0.41367 0.881682,0.88488 1.174721,0.87301 0.202394,-0.008 0.287682,0.13808 0.170087,0.29205 -0.101544,0.13295 -0.899567,0.62965 -1.167852,0.72688 -0.08697,0.0315 -0.389319,0.21707 -0.671692,0.41199 -1.274374,0.87974 -2.193156,1.2467 -4.09503,1.63621 -0.488601,0.10006 -0.918953,0.23905 -1.045526,0.33765 -0.337772,0.26305 -0.487954,0.88458 -0.373875,1.54654 0.114853,0.6667 0.301918,1.0133 0.780019,1.4455 l 0.365059,0.33018 0.05304,2.49742 c 0.05946,2.78895 0.03896,2.91319 -0.52467,3.1611 -0.379604,0.16698 -0.562017,0.39973 -0.744581,0.94919 -0.187758,0.56509 -0.129278,1.00218 0.211807,1.57765 0.200869,0.3389 0.330022,0.44394 0.800712,0.65387 0.406183,0.18116 0.556987,0.29235 0.546914,0.40195 -0.0076,0.0833 2.8e-5,1.08468 0.01722,2.22579 0.03538,2.34842 0.02201,2.41459 -0.593879,2.92083 -1.159183,0.95272 -0.553269,2.56489 0.384353,2.99033 0.204686,0.0929 0.395004,0.22616 0.423164,0.29627 0.09013,0.22459 0.131685,5.41931 0.04493,5.61744 -0.04516,0.10314 -0.16611,0.2124 -0.268423,0.24257 -0.102314,0.0301 -0.357267,0.24026 -0.566535,0.46721 -0.72945,0.79107 -0.439238,2.4799 0.788324,2.8638 l 0.412775,0.12913 0.243947,5.72988 c -0.559742,0.46497 -1.346903,0.94139 -1.311597,1.73656 0.01348,1.04361 0.408984,1.70725 1.138081,1.90939 l 0.410597,0.11371 0.02837,1.42835 c 0.02889,1.46561 0.16189,2.36679 0.395286,2.67286 0.0681,0.0893 0.276795,0.31166 0.463248,0.49429 0.903343,0.8848 1.351811,1.44048 1.283367,1.58906 -0.212678,0.46178 -0.176611,1.24337 0.166935,1.59342 0.356021,0.36278 0.998574,0.66996 1.583267,0.47634 0.883505,-0.29255 4.585478,3.72702 4.445124,4.3521 -0.120282,0.53569 -0.435628,2.57158 1.872541,2.03842 0.919384,-0.2125 3.72271,2.98874 3.674325,3.54288 -0.04053,0.46409 -0.206682,0.71078 -0.64647,0.95816 -0.857318,0.48223 -1.173602,1.5339 -0.736585,2.44924 0.2405,0.50372 0.601708,0.82178 1.047434,0.92265 0.192803,0.0436 0.329524,0.11651 0.303943,0.16198 -0.05549,0.0985 -0.07331,0.85778 -0.0609,2.58272 0.01473,2.04297 0.01227,2.05266 -0.641691,2.46815 -0.313681,0.1993 -0.431575,0.34652 -0.594219,0.7414 -0.269932,0.65535 -0.294186,1.01221 -0.102788,1.51022 0.200158,0.52078 0.424986,0.7424 1.00302,0.98806 0.384385,0.16336 0.45391,0.22516 0.42337,0.37799 -0.02011,0.10052 -0.02137,1.22126 -0.0031,2.4909 0.02648,1.68714 0.60045,3.01221 0.399324,4.56042 0.04755,0.079 0.151819,0.27605 0.231337,0.438 0.217001,0.44218 0.522299,0.56714 1.292112,0.52796 1.408049,-0.0701 3.275065,3.31044 4.259764,4.37253 0.03134,0.0729 0.0035,0.1245 -0.0688,0.12743 -0.137238,0.006 -0.273094,0.25329 -0.376615,0.68708 -0.10915,0.45743 0.183479,1.38861 0.517709,1.64748 0.247418,0.19166 0.298365,0.19764 1.093303,0.12692 l 0.833809,-0.0741 c 1.32676,1.5537 2.51997,3.17771 3.746565,4.81585 l -0.129543,0.28763 c -0.188532,0.41968 -0.197476,1.09899 -0.01881,1.41269 0.08075,0.14186 0.15004,0.3334 0.153775,0.42563 0.0037,0.0922 0.128234,0.24721 0.276667,0.3441 0.244437,0.15957 0.334821,0.16841 0.962691,0.0944 0.821519,-0.0967 0.77205,-0.13045 1.751188,1.1874 0.336153,0.45243 0.777318,1.00674 0.979781,1.23156 0.364351,0.40461 1.138162,1.43315 1.37581,1.82841 0.104855,0.17445 0.105595,0.2512 0.006,0.51849 -0.176385,0.47349 -0.203477,0.86126 -0.08405,1.19397 0.359208,1.00074 0.599605,1.16892 1.613292,1.12834 l 0.686238,-0.0273 0.397021,0.39146 c 0.218496,0.21542 0.450189,0.48257 0.514334,0.5936 0.06418,0.11102 0.225006,0.33099 0.357518,0.48874 0.26739,0.31834 1.085396,1.68126 1.090922,1.81769 0.0055,0.13559 -0.394252,0.11228 -1.23174,-0.0717 -1.586215,-0.34838 -4.798851,-1.3035 -5.000385,-1.48662 -0.06316,-0.0574 -0.190006,-0.32377 -0.281521,-0.59165 -0.249001,-0.7292 -0.402893,-0.80348 -1.718708,-0.83236 -0.595646,-0.013 -1.273853,-0.0564 -1.506844,-0.0962 -0.868943,-0.14855 -2.20714,-0.69677 -5.280172,-2.16316 -0.116839,-0.0558 -0.303056,-0.12848 -0.468075,-0.19206 a 86.573303,86.573303 0 0 1 -0.47341,-0.28544 c -0.05058,-0.081 -0.08827,-0.18085 -0.140575,-0.38066 -0.275945,-1.0542 -0.527398,-1.31834 -1.300729,-1.36648 -0.814931,-0.0507 -1.390396,-0.13137 -1.927186,-0.2845 a 86.573303,86.573303 0 0 1 -5.864912,-3.53743 c -0.0066,-0.0452 -0.0092,-0.0878 -0.01195,-0.15467 -0.01665,-0.41116 -0.249626,-1.17721 -0.437964,-1.44074 -0.1581,-0.22122 -0.189265,-0.23083 -1.368067,-0.42403 -0.487894,-0.08 -0.828356,-0.17145 -1.158327,-0.30218 a 86.573303,86.573303 0 0 1 -5.387139,-4.48514 c 0.0021,-0.0487 -0.0053,-0.0574 -0.0013,-0.12045 0.0327,-0.51306 -0.113866,-1.17964 -0.306252,-1.39384 -0.293661,-0.32698 -0.451778,-0.40811 -1.029454,-0.5298 -0.817047,-0.18676 -1.4856,-0.62553 -2.109161,-1.13825 a 86.573303,86.573303 0 0 1 -3.924907,-4.43057 l 0.02553,-0.19963 c 0.09285,-0.72137 -0.02286,-1.32428 -0.323827,-1.6874 -0.196915,-0.23758 -0.360638,-0.32328 -0.860735,-0.45027 -0.735955,-0.18688 -1.440717,-0.58589 -1.691734,-0.9581 -0.521253,-0.7371 -1.153673,-1.49281 -1.741271,-2.25787 a 86.573303,86.573303 0 0 1 -1.139433,-1.764 c -0.338044,-0.71296 -0.54275,-1.46199 -0.464011,-2.27546 0.01376,-0.69889 0.0033,-0.74631 -0.22661,-1.02365 -0.176965,-0.21351 -0.403885,-0.3454 -0.853301,-0.49659 -0.64029,-0.2154 -1.23315,-0.64133 -1.46221,-1.05015 -0.94996,-1.60355 -1.869675,-3.22166 -2.726636,-4.91716 l -0.193633,-0.37539 c 0.53952,-1.57557 0.80438,-2.39654 -0.767432,-3.0886 -2.005615,-0.92128 -2.230342,-4.34229 -3.194033,-6.15241 -0.228988,-0.64451 -0.232742,-0.6763 -0.09743,-0.88613 0.362067,-0.56142 0.487085,-0.97648 0.467722,-1.55344 -0.02599,-0.75933 -0.252224,-1.08623 -0.981176,-1.41926 -0.4843,-0.22126 -0.790849,-0.5229 -0.875314,-0.86135 -0.0298,-0.11938 -0.138128,-0.46231 -0.240855,-0.7624 -0.102736,-0.30009 -0.191509,-0.65902 -0.197788,-0.79726 -0.0063,-0.13825 -0.07002,-0.40137 -0.141605,-0.58489 -0.0716,-0.18352 -0.27791,-0.99522 -0.458345,-1.80349 -0.180435,-0.80828 -0.375744,-1.65166 -0.433801,-1.87431 -0.09831,-0.37719 -0.09172,-0.42095 0.09616,-0.63952 0.819102,-0.95291 1.060292,-2.45228 -0.144799,-3.01348 -0.61539,-0.28658 -0.704197,-0.42237 -0.823112,-1.25808 -0.05804,-0.40771 -0.181247,-1.25278 -0.273631,-1.8782 -0.09243,-0.62543 -0.217866,-1.77695 -0.278947,-2.55861 l -0.163781,-2.76705 c 0.568631,-0.70789 1.014682,-1.0618 0.989868,-1.69923 -0.02318,-0.59607 -0.11896,-0.76357 -0.780601,-1.37048 l -0.440463,-0.40419 -0.01911,-2.00436 c -0.01053,-1.1026 -0.02059,-2.31002 -0.02228,-2.68279 -0.0017,-0.37277 -0.0076,-0.85594 -0.01247,-1.07421 -0.0093,-0.38746 8.8e-5,-0.40292 0.408236,-0.64698 1.491025,-0.89156 1.066234,-2.77586 0.339319,-3.166 -0.166962,-0.0896 -0.329952,-0.25247 -0.362205,-0.36185 -0.05887,-0.19989 0.0774,-1.88397 0.197435,-2.4424 0.03532,-0.16455 0.07851,-0.56702 0.0962,-0.89398 0.01769,-0.32694 0.07303,-0.84351 0.123125,-1.14848 0.05009,-0.30496 0.107823,-0.74625 0.127878,-0.98008 0.02002,-0.23384 0.06479,-0.55944 0.09946,-0.72396 0.03463,-0.16451 0.0784,-0.39832 0.09791,-0.51959 0.02743,-0.17081 0.115265,-0.24785 0.389035,-0.34211 0.817154,-0.28133 1.381301,-1.08971 1.346695,-1.92986 -0.02111,-0.51255 -0.202672,-0.85257 -0.650963,-1.22161 l -0.273406,-0.22528 0.06875,-0.54997 c 0.03805,-0.30246 0.221795,-1.12834 0.408224,-1.83497 0.186438,-0.70662 0.42085,-1.61209 0.521029,-2.01228 0.332822,-1.32953 0.613654,-2.3541 0.672286,-2.45335 0.03188,-0.0539 0.258837,-0.13357 0.504325,-0.17713 0.59342,-0.10542 1.067968,-0.49591 1.34886,-1.11021 0.291646,-0.63789 0.265744,-1.0891 -0.09425,-1.66307 -0.152525,-0.24319 -0.313568,-0.4629 -0.358528,-0.4882 -0.11896,-0.067 0.02111,-0.75246 0.252954,-1.23753 0.05739,-0.12006 0.187645,-0.46874 0.289803,-0.77459 0.102167,-0.30584 0.393278,-1.04079 0.646526,-1.6336 0.253258,-0.59282 0.577455,-1.36867 0.720443,-1.724 0.142999,-0.355332 0.341523,-0.79224 0.441658,-0.971068 0.171349,-0.305984 0.207097,-0.326458 0.606749,-0.342643 1.017505,-0.04121 1.667816,-0.761704 1.720546,-1.906215 0.0201,-0.43613 -0.01276,-0.595907 -0.196358,-0.9535 -0.121312,-0.236325 -0.222642,-0.478736 -0.225066,-0.538587 -0.0052,-0.127165 0.892491,-2.095056 1.044079,-2.288948 0.05658,-0.07237 0.220884,-0.364941 0.36517,-0.650413 0.358399,-0.709123 1.5579,-2.730613 1.764214,-2.97339 0.145894,-0.171644 0.251941,-0.201045 0.814299,-0.22382 0.617014,-0.02499 0.662646,-0.04057 0.981438,-0.336613 0.475153,-0.441249 0.695615,-0.987619 0.611535,-1.514267 -0.03636,-0.227656 -0.133656,-0.542735 -0.21608,-0.699798 -0.219634,-0.418244 -0.119003,-0.664495 0.812719,-1.986849 0.202808,-0.287843 0.435956,-0.640177 0.51753,-0.783295 0.271485,-0.476164 1.547446,-2.140805 2.391819,-3.120346 0.326233,-0.378448 0.412608,-0.399654 1.367339,-0.334657 0.448351,0.03052 0.544551,0.0093 0.795527,-0.176513 0.430619,-0.318856 0.770127,-0.978282 0.734574,-1.426157 -0.01596,-0.201196 -0.08814,-0.473379 -0.160515,-0.604816 -0.108136,-0.196417 -0.114246,-0.282945 -0.03521,-0.486282 0.291699,-0.750497 4.00296,-4.530784 4.53003,-4.942624 0.402435,-0.314451 0.770133,-0.385813 1.258764,-0.244406 0.112699,0.03261 1.919811,0.320849 1.758249,-1.639321 l -0.05378,-0.651031 c 1.422076,-1.618903 3.200784,-2.836506 4.877943,-4.167485 0.655485,-0.543694 0.788219,-0.575779 1.849862,-0.449878 0,0 0.87719,0.08474 1.215936,-0.229225 0.338745,-0.313963 0.504586,-0.936913 0.487503,-1.358743 -0.01109,-0.273729 0.03413,-0.397527 0.209644,-0.570157 0.573356,-0.563954 5.584554,-3.609201 6.30631,-3.761414 0.306088,-0.06455 0.384537,-0.04764 0.586947,0.126214 0.340556,0.292524 0.567174,0.377333 0.964188,0.361255 0.312123,-0.01264 0.394981,-0.06261 0.712805,-0.431239 0.414257,-0.480463 0.631869,-0.898861 0.696201,-1.339268 0.04055,-0.277716 0.104807,-0.344317 0.625517,-0.64544 1.726823,-0.998609 5.284857,-2.603763 7.205182,-3.250633 0.521754,-0.175754 0.801912,-0.267441 0.969001,-0.298872 z m 64.679429,1.836657 c 0.0603,-0.0056 0.27281,0.06498 0.47234,0.156714 0.19953,0.09173 0.69292,0.31604 1.09643,0.498126 0.40352,0.182085 0.81208,0.387389 0.90806,0.456622 0.2124,0.153147 0.24537,0.155735 -0.61622,-0.04435 -0.87729,-0.203735 -1.47196,-0.479685 -1.54226,-0.715392 -0.0293,-0.09819 -0.13767,-0.214949 -0.24066,-0.259708 -0.103,-0.04477 -0.13801,-0.08637 -0.0777,-0.09202 z m 5.15192,2.622957 c 0.0729,-0.01241 0.19578,0.02361 0.34994,0.110469 0.2168,0.122132 0.284,0.209509 0.25663,0.334572 -0.0203,0.09309 0.004,0.167406 0.0548,0.16535 0.11303,-0.0046 0.36851,0.427989 0.37703,0.638456 0.01,0.235844 0.61204,1.005 0.92172,1.177029 0.40795,0.226631 1.10651,0.177067 1.5662,-0.111011 0.44795,-0.280719 0.68085,-0.292314 1.09263,-0.05563 2.02128,1.110024 4.02379,2.205723 5.7618,3.762449 l -0.0292,0.556125 c -0.0236,0.448992 -0.002,0.581358 0.11371,0.687909 0.0787,0.0726 0.14522,0.188788 0.14801,0.257772 0.008,0.189053 0.49656,0.530199 0.82922,0.578768 0.16168,0.02359 0.45566,0.01266 0.65326,-0.02439 0.52915,-0.09921 1.25555,-0.10277 1.45871,-0.0068 0.83205,0.577202 4.9367,3.575696 5.07859,4.988441 -0.12554,0.375286 -0.062,1.034561 0.11526,1.198829 0.0862,0.07988 0.21371,0.24797 0.28354,0.373305 0.0698,0.125337 0.18016,0.225955 0.24541,0.223313 0.0653,-0.0026 0.17746,0.04933 0.2493,0.11558 0.0963,0.08878 0.31442,0.110122 0.8298,0.08224 0.42314,-0.02291 0.78185,0.002 0.90865,0.0625 1.26457,0.854834 4.90443,4.250792 4.6843,5.762609 -0.51418,1.8442 1.51682,2.288155 2.14384,2.262761 1.04211,-0.0422 4.26225,5.180182 4.33276,5.638755 0.0514,0.334183 0.0304,0.447806 -0.12343,0.668551 -1.05943,1.520312 1.02019,2.590079 1.8846,2.501858 0.7443,-0.07611 4.06272,6.09291 3.35718,6.630927 -1.05581,0.805103 0.13964,2.979201 1.24394,2.939481 0.68561,-0.0249 0.73813,0.041 1.40974,1.77273 1.15439,2.97647 1.47531,3.90402 1.56567,4.52404 0.0617,0.42362 0.0543,0.44832 -0.1792,0.58133 -0.98941,0.56351 -0.62467,2.99697 1.24837,3.1767 l 0.36917,0.0357 0.28375,1.14494 c 0.37339,1.50344 0.67198,3.01218 0.99947,4.51439 0.1388,0.91789 0.096,1.24888 -0.17507,1.34713 -0.21686,0.0786 -1.59694,1.66353 0.20736,3.12783 0.24724,0.20066 0.79642,0.39602 0.90571,0.32224 0.0349,-0.0236 0.0727,0.0389 0.0837,0.13884 0.25079,1.97699 0.48932,3.95566 0.70641,5.93663 0.0175,0.0686 -0.0294,0.22823 -0.21465,0.7276 -0.0865,0.2331 -0.21713,0.37352 -0.47728,0.51272 -0.28623,0.15315 -0.3978,0.28457 -0.55481,0.65448 -0.2298,0.5415 -0.23345,0.80118 -0.0198,1.36204 0.23033,0.60476 0.56503,0.99041 1.03674,1.19512 l 0.41536,0.18023 0.007,1.48248 c 0.0128,2.57006 -0.039,4.25553 -0.13798,4.48496 -0.0526,0.12194 -0.29869,0.34604 -0.54667,0.49795 -1.40429,0.86026 -0.84933,2.60312 0.044,3.22029 0.3379,0.2334 0.34624,0.25097 0.30607,0.62323 -0.0227,0.21064 -0.0453,0.45947 -0.0495,0.55281 -0.0121,0.24999 -0.0868,0.85593 -0.18876,1.53284 -0.15758,1.04658 -0.25801,1.78357 -0.27267,2.00221 -0.0344,0.51182 -0.16548,1.44173 -0.26439,1.87465 -0.23294,1.01963 -0.2182,0.9943 -0.72332,1.2571 -0.91741,0.47728 -1.28594,1.06556 -1.19403,1.90661 0.0573,0.52438 0.47836,1.44834 0.69308,1.52091 0.27201,0.0919 0.23755,0.53557 -0.14965,1.92379 -0.42587,1.52234 -0.78474,3.15888 -1.42589,4.57177 -0.0398,0.11897 -0.20244,0.26969 -0.38286,0.35426 -0.94771,0.44428 -1.22697,0.63984 -1.39762,0.97875 -0.28615,0.56821 -0.28625,0.89554 -3.3e-4,1.62657 0.13964,0.35703 0.32959,0.73768 0.42215,0.84608 0.0926,0.10839 0.16985,0.23508 0.17174,0.28165 0.002,0.0466 -0.13907,0.41926 -0.31351,0.82778 -0.17444,0.40852 -0.3796,0.89748 -0.4561,1.08698 -0.14875,0.36857 -1.45744,3.56022 -1.71316,3.87641 -0.19435,0.2403 -0.39518,0.35762 -0.93263,0.54564 -0.91715,0.32086 -1.25145,0.70399 -1.3864,1.58806 -0.0467,0.30589 0.08,0.85117 0.3358,1.44642 l 0.16964,0.39602 a 86.573303,86.573303 0 0 1 -0.25001,0.45491 l -0.11191,0.17365 c -0.2084,0.32406 -0.43731,0.70591 -0.5092,0.84864 -0.0718,0.14272 -0.17389,0.33744 -0.22658,0.43275 -0.0526,0.0953 -0.17086,0.30979 -0.26309,0.47664 -0.0922,0.16686 -0.30702,0.53294 -0.47752,0.81323 -0.3533,0.58085 -0.39445,0.65023 -0.66779,1.13434 -0.57393,1.01654 -0.79211,1.2608 -1.26208,1.4139 -0.24844,0.0809 -0.65228,0.21257 -0.89738,0.29235 -0.45185,0.14715 -0.83402,0.48765 -1.0428,0.9287 -0.14865,0.31412 -0.0888,1.24256 0.11162,1.73426 l 0.16942,0.4162 a 86.573303,86.573303 0 0 1 -0.0182,0.0235 l -0.37979,0.41723 c -0.21941,0.24097 -0.46205,0.54846 -0.53916,0.68333 -0.16315,0.28549 -0.31721,0.4884 -0.9667,1.27522 -0.26187,0.31727 -0.61008,0.77331 -0.77406,1.01298 -0.43024,0.62884 -1.28242,1.47388 -1.66866,1.65483 -0.18295,0.0857 -0.64863,0.2522 -1.03441,0.36979 -1.14713,0.34963 -1.44872,0.79818 -1.36596,2.0289 0.0615,0.91427 0.0558,0.93962 -0.24015,1.1703 -0.152,0.11846 -0.93128,0.87647 -1.73212,1.68429 -2.27656,2.29639 -2.53861,2.48556 -3.71028,2.68241 -0.88207,0.1482 -1.12275,0.2488 -1.43774,0.60128 -0.32735,0.3663 -0.48936,1.08979 -0.3881,1.73175 0.0681,0.43171 0.0658,0.4381 -0.21181,0.58059 -0.1543,0.0792 -0.37631,0.2144 -0.49362,0.30082 -0.3803,0.28009 -0.79018,0.59941 -1.07192,0.83523 -0.73328,0.61374 -2.20776,1.77278 -2.57633,2.02517 -0.51118,0.35003 -1.24237,0.57888 -1.93918,0.6071 -0.7383,0.0299 -1.57587,0.35306 -1.81948,0.70207 -0.39762,0.56966 -0.24444,1.81677 -0.59994,1.94099 -0.29588,0.1034 -1.03823,0.48736 -1.49202,0.81914 -0.36078,0.26378 -1.86476,1.07105 -2.65393,1.42425 -0.68909,0.30842 -1.45191,0.50399 -2.34796,0.60193 -0.90039,0.0984 -1.51629,0.24606 -1.81732,0.43615 -0.18689,0.11801 -0.55045,0.73687 -0.54287,0.92395 0.001,0.0331 -0.1032,0.22756 -0.23229,0.43248 -0.20328,0.32267 -0.34393,0.42304 -1.05009,0.74848 -1.1006,0.50724 -2.98045,1.20886 -3.76765,1.40626 -0.35374,0.0887 -1.11753,0.21484 -1.69744,0.28026 -2.26611,0.25586 -2.46355,0.32375 -2.80199,0.96115 -0.12605,0.23739 -0.35965,0.52939 -0.51935,0.6489 -0.45145,0.33784 -1.93837,0.73296 -3.60733,0.95912 l 2e-5,5.1e-4 c -0.53303,0.0722 -1.07263,0.16914 -1.19893,0.21509 -0.16357,0.0595 -0.23014,0.0542 -0.23243,-0.018 -0.005,-0.14468 0.5919,-0.99001 1.17733,-1.66803 l 0.50044,-0.57934 0.70481,0.0227 c 0.63637,0.0204 0.74007,10e-4 1.07047,-0.19438 0.49284,-0.2919 0.6752,-0.69739 0.6898,-1.53554 0.007,-0.41314 -0.0284,-0.71996 -0.097,-0.8365 -0.12902,-0.21926 -0.0592,-0.36576 0.56116,-1.1745 0.82009,-1.0965 1.43135,-2.12332 2.44527,-2.94978 0.40779,-0.27913 0.41861,-0.28122 1.00343,-0.21493 0.51851,0.0588 0.63251,0.0462 0.9278,-0.10326 0.18517,-0.0937 0.4144,-0.26271 0.50922,-0.37541 0.45266,-0.53794 0.60433,-1.4176 0.34181,-1.9807 -0.14343,-0.30769 -0.14189,-0.33614 0.0268,-0.6786 0.75533,-1.37942 1.86018,-2.65078 2.85312,-3.79793 l 0.24713,-0.33428 0.73838,0.009 c 0.93948,0.0112 1.59698,-0.15551 1.85062,-0.46956 0.43602,-0.53984 0.50782,-1.57821 0.14728,-2.13574 -0.21119,-0.32656 -0.0908,-0.60676 0.56949,-1.32638 0.29215,-0.31838 0.61688,-0.70593 0.72178,-0.86088 0.10491,-0.15494 0.43632,-0.56072 0.73665,-0.90233 0.30034,-0.34161 0.63695,-0.73844 0.74784,-0.88157 0.19204,-0.24786 0.23525,-0.2625 0.91602,-0.30449 0.39309,-0.0242 0.87734,-0.0966 1.07596,-0.16098 0.74715,-0.2422 1.06845,-1.26211 0.89982,-1.93038 -0.10398,-0.41199 -0.0978,-0.48299 0.0753,-0.86209 0.10372,-0.22724 0.1829,-0.55364 0.17594,-0.7255 -0.007,-0.17188 0.0155,-0.50249 0.0499,-0.73488 0.0344,-0.23239 0.0581,-1.12528 0.0526,-1.98399 -0.005,-0.85871 0.003,-1.60722 0.018,-1.66349 0.0359,-0.13111 1.00483,-0.33756 1.51609,-1.33575 0.22446,-0.43833 0.24431,-0.54193 0.18695,-0.9773 -0.087,-0.66056 -0.33472,-1.0031 -0.89851,-1.24261 -0.6757,-0.28709 -0.6877,-0.31116 -0.67957,-1.36578 0.004,-0.50302 0.007,-1.50542 0.006,-2.22778 -7.3e-4,-0.72234 0.0131,-1.36144 0.0304,-1.42039 0.85413,-0.55028 2.0069,-1.36588 1.58461,-2.60667 -0.18812,-0.40358 -0.49571,-0.69451 -1.06859,-1.01076 l -0.46235,-0.25487 -0.0262,-0.64594 c -0.0223,-0.54987 -0.003,-0.65826 0.13029,-0.72882 0.0862,-0.0456 0.4949,-0.42089 0.90804,-0.83375 2.32849,-2.32697 2.09949,-2.12944 2.42092,-2.0825 2.74938,0.40145 2.47872,-1.88966 2.1142,-2.1342 -0.14655,-0.0983 -0.19975,-0.0408 2.14497,-2.31957 0.4727,-0.45943 1.11448,-1.09581 1.42603,-1.41383 0.5319,-0.53035 0.88331,-0.38984 1.68158,-0.40375 1.05182,0.1041 1.29453,-0.60883 1.24814,-1.41334 -0.0201,-0.34913 -0.0734,-0.67672 -0.1179,-0.72756 -0.054,-0.0618 0.0579,-0.23519 0.33727,-0.52206 1.25437,-1.28825 1.50429,-1.5909 1.61792,-1.96256 0.4923,-1.62679 0.16869,-3.31229 1.87976,-4.38586 0.25959,-0.33763 0.2873,-0.42791 0.26939,-0.86997 -0.0173,-0.42729 -0.0591,-0.53975 -0.31358,-0.84686 -0.16153,-0.19488 -0.44769,-0.43265 -0.6358,-0.52815 -0.32039,-0.16264 -0.34631,-0.20405 -0.41415,-0.64834 -0.0762,-0.49918 -0.0558,-1.12213 0.0985,-3.00782 0.0517,-0.63125 0.1078,-1.45358 0.1246,-1.8271 0.0288,-0.64134 0.0418,-0.68107 0.24043,-0.71673 0.11568,-0.0208 0.27139,-0.10347 0.3458,-0.18364 1.46661,-1.31776 1.60422,-2.21501 -0.0674,-3.40036 -0.19826,-0.33681 -0.026,-5.84525 0.24588,-5.85626 0.068,-0.003 0.26782,-0.15363 0.44412,-0.33554 0.1763,-0.18191 0.38375,-0.39639 0.46118,-0.47639 0.50035,-0.51688 0.54555,-0.61509 0.524,-1.14713 -0.0185,-0.45601 -0.0556,-0.55975 -0.30381,-0.8483 -0.15548,-0.18077 -0.42177,-0.39605 -0.5914,-0.47875 -0.3574,-0.17422 -0.46312,-0.47346 -0.39302,-1.11001 0.0241,-0.21944 0.0424,-0.79913 0.0404,-1.2884 -0.002,-0.48927 0.0176,-1.06224 0.0436,-1.27302 0.0259,-0.21077 0.0388,-0.62681 0.0287,-0.92486 -0.0177,-0.52015 -0.009,-0.54542 0.22103,-0.63371 0.24741,-0.0949 0.36359,-0.18524 0.76161,-0.59251 0.6035,-0.61753 0.75632,-0.90197 0.73729,-1.37196 -0.0236,-0.58318 -0.30007,-0.9865 -0.88664,-1.2943 -0.55068,-0.28895 -0.71907,-0.57295 -0.63168,-1.06466 0.11831,-0.66575 0.15805,-1.4577 0.1519,-3.03065 -0.003,-0.86205 0.009,-1.63065 0.028,-1.70838 0.0796,-0.32769 1.3598,-0.83572 1.30377,-2.09569 -0.0132,-0.30195 -0.0841,-0.54653 -0.22188,-0.76628 -0.3426,-0.54656 -0.52871,-0.62021 -1.8434,-0.73165 -0.95364,-0.0808 -1.27426,-0.14329 -1.62541,-0.31637 -0.37517,-0.18492 -1.6347,-1.01085 -1.7671,-1.15883 -0.0513,-0.0574 -0.96266,-0.66332 -1.47012,-0.97742 -0.19041,-0.11785 -0.39206,-0.29221 -0.44805,-0.38732 -0.0901,-0.15305 -0.0725,-0.18459 0.15286,-0.27358 0.63225,-0.33433 1.51855,-1.27182 1.51255,-2.01055 -0.0841,-0.61675 -0.34795,-0.99774 -0.86793,-1.25367 -0.25241,-0.12424 -0.48974,-0.30925 -0.53618,-0.4179 -0.0787,-0.1841 -0.10501,-1.11774 -0.0937,-3.33569 0.003,-0.53354 -0.004,-1.19316 -0.0149,-1.46563 -0.0321,-0.792766 0.47469,-0.58082 1.14185,-1.624692 0.22177,-0.347038 0.25469,-0.474374 0.2372,-0.923995 -0.0273,-0.7012 -0.36335,-1.165642 -0.99003,-1.36976 -0.63849,-0.207973 -0.79596,-0.555685 -0.86092,-1.897865 -0.0234,-0.48301 -0.0892,-1.048089 -0.14601,-1.255508 -0.0567,-0.207424 -0.11086,-0.539991 -0.11993,-0.739376 -0.009,-0.19938 -0.10993,-0.679155 -0.22366,-1.065659 l -0.20689,-0.702755 0.26923,-0.376038 c 0.14796,-0.206937 0.30933,-0.416477 0.35868,-0.465514 0.0493,-0.04907 0.18283,-0.278738 0.29689,-0.510592 0.46763,-0.950632 0.0267,-1.869592 -1.02411,-2.134335 -0.19844,-0.04999 -0.43806,-0.167698 -0.53244,-0.261856 -0.16001,-0.159596 -0.41808,-0.832581 -0.81939,-2.136419 -0.27298,-0.886929 -0.63098,-1.833696 -0.71067,-1.878608 -0.0409,-0.02302 0.0143,-0.138431 0.12306,-0.256337 0.39722,-0.430837 1.47101,-2.566288 -0.0397,-3.12686 -0.16088,-0.05969 -0.50141,-0.143195 -0.75692,-0.18553 -0.31173,-0.05166 -0.53809,-0.149947 -0.68803,-0.297965 -0.21481,-0.212043 -0.61023,-0.929353 -0.6202,-1.126142 -0.003,-0.05222 -0.33166,-0.691605 -0.73093,-1.421111 l -0.72605,-1.326145 0.22485,-0.500952 c 0.30783,-0.685622 0.34613,-1.138471 0.14205,-1.690235 -0.22191,-0.599988 -0.5195,-0.873204 -1.09641,-1.008073 -1.02961,-0.240701 -1.3202,-0.384812 -1.60389,-0.794094 -0.43953,-0.634112 -0.75852,-1.122034 -0.87938,-1.344761 -0.16469,-0.3035 -0.98004,-1.41125 -1.16301,-1.579972 -0.0857,-0.07906 -0.15725,-0.179574 -0.15904,-0.223708 -0.002,-0.04413 -0.0973,-0.17427 -0.21237,-0.288783 -0.22204,-0.220978 -0.22367,-0.298713 -0.0237,-1.27391 0.11377,-0.554615 0.0576,-1.144474 -0.14494,-1.522937 -0.18826,-0.351818 -0.43872,-0.498973 -1.12689,-0.662393 -0.56885,-0.135084 -1.45463,-0.45407 -1.60969,-0.579743 -0.0856,-0.06935 -0.28354,-0.218148 -0.43957,-0.330783 -0.15602,-0.112635 -0.28634,-0.27645 -0.28987,-0.363739 -0.004,-0.08728 -0.0747,-0.193241 -0.15798,-0.235645 -0.1901,-0.09681 -0.61143,-0.49285 -1.08767,-1.022393 -0.2022,-0.224835 -0.43624,-0.438623 -0.51987,-0.474929 -0.0837,-0.0363 -0.20793,-0.165021 -0.27637,-0.285673 -0.0684,-0.120653 -0.14811,-0.237055 -0.17703,-0.259183 -0.23156,-0.177047 -0.31471,-0.919744 -0.1038,-0.928286 0.0408,-0.0017 0.0725,-0.04908 0.0702,-0.105763 -0.002,-0.05668 0.092,-0.193123 0.20961,-0.302769 0.12694,-0.118349 0.19205,-0.249909 0.16013,-0.324038 -0.0454,-0.105382 -0.0227,-0.165981 0.0502,-0.178394 z m -60.301969,6.55328 c 0.101726,-0.0041 0.226711,0.03848 0.277432,0.09479 0.223357,0.247986 0.800029,1.762892 1.352523,3.552093 0.350279,1.134354 0.357371,1.525993 0.03169,1.80422 -0.5487,0.468767 -0.663095,1.453641 -0.254131,2.19179 0.285594,0.515482 0.614278,0.737969 1.189559,0.805185 0.478986,0.05596 0.726462,0.249196 0.818219,0.639208 0.02848,0.121116 0.138006,0.464675 0.243478,0.763335 0.182899,0.51769 0.265011,0.783436 0.840426,2.71999 0.136826,0.460506 0.398967,1.269422 0.582245,1.797955 0.292044,0.842328 0.323355,1.000488 0.252535,1.280674 -0.04442,0.175806 -0.153883,0.362697 -0.243326,0.415329 -0.08939,0.05263 -0.160612,0.146228 -0.158106,0.208107 0.0025,0.06188 -0.07286,0.219074 -0.166876,0.349137 -0.146198,0.202196 -0.161079,0.312103 -0.104319,0.75725 0.03652,0.286346 0.134824,0.641564 0.218686,0.789681 0.17618,0.311276 0.765491,0.653937 1.219272,0.708819 0.3709,0.04487 0.585115,0.31619 0.75993,0.962224 0.162974,0.602249 0.949712,3.139763 1.227872,3.960549 0.450564,1.329395 0.609872,1.958515 0.54421,2.148598 -0.06338,0.183505 -0.334157,0.5321 -0.461074,0.593786 -0.03684,0.01789 -0.145562,0.201654 -0.242069,0.408038 -0.245875,0.52579 -0.212907,1.099438 0.07757,1.353442 0.119953,0.104902 0.220437,0.258242 0.223791,0.341074 0.0071,0.175485 0.359774,0.41004 0.601666,0.400244 0.09195,-0.0037 0.188592,0.02589 0.215206,0.06524 0.02662,0.03945 0.203768,0.08979 0.393475,0.112328 0.404604,0.04801 0.420951,0.07424 0.774656,1.249184 1.167104,3.876837 1.217217,3.998721 1.723699,4.18665 0.16875,0.06262 0.70868,0.130934 1.19984,0.152078 1.23297,0.053 1.53115,0.0964 1.53629,0.22327 0.002,0.06 0.063,0.15404 0.13518,0.20916 0.0721,0.0551 0.13411,0.16984 0.13754,0.25457 0.003,0.0848 0.0966,0.25059 0.2068,0.36866 0.16221,0.17384 0.2974,0.21946 0.71104,0.24014 l 0.51046,0.0254 0.40383,-0.4363 c 0.22203,-0.23994 0.44332,-0.51062 0.49128,-0.60174 0.0826,-0.15672 0.20832,-0.1707 2.36205,-0.25392 2.13398,-0.08292 3.71397,-0.09203 5.05277,-0.0293 0.53575,0.0251 0.57364,0.04 0.58139,0.23143 0.0101,0.24895 0.39889,0.80626 0.68027,0.97476 0.26103,0.15632 0.64007,0.1414 1.03066,-0.0407 0.39501,-0.18416 0.58629,-0.37674 0.71166,-0.71461 0.12657,-0.34108 0.35998,-0.39656 1.76927,-0.42231 0.98193,-0.018 1.03491,-0.028 1.35189,-0.256448 0.37426,-0.269776 0.6261,-0.786761 1.17324,-2.407447 0.18344,-0.54338 0.36476,-1.065616 0.40295,-1.160339 0.0382,-0.09475 0.16051,-0.443116 0.27173,-0.773858 0.11122,-0.33073 0.23383,-0.637527 0.27236,-0.681823 0.0385,-0.04429 0.25193,-0.08748 0.4745,-0.09628 0.56734,-0.0224 1.02109,-0.313283 1.23858,-0.793877 0.0945,-0.208796 0.16962,-0.461864 0.16753,-0.562761 -0.002,-0.100885 0.0375,-0.199139 0.0879,-0.218193 0.14124,-0.05352 -0.0863,-0.687999 -0.35041,-0.977258 -0.12277,-0.134472 -0.29865,-0.265156 -0.39085,-0.290346 -0.099,-0.02706 -0.17053,-0.121761 -0.17485,-0.230826 -0.006,-0.160335 0.61558,-2.193395 0.81845,-2.675459 0.0399,-0.09483 0.14476,-0.42286 0.23319,-0.72937 0.17877,-0.61963 0.19974,-0.683243 0.46961,-1.417494 0.10433,-0.283854 0.28008,-0.806268 0.3905,-1.161387 0.11041,-0.355127 0.27848,-0.797548 0.37344,-0.982782 0.16226,-0.316504 0.19881,-0.339006 0.60696,-0.375752 0.55061,-0.04954 0.91699,-0.25768 1.12031,-0.636516 0.0879,-0.163791 0.18978,-0.298863 0.22625,-0.30034 0.10113,-0.0041 0.0624,-0.68218 -0.0591,-1.038705 -0.0593,-0.174072 -0.25052,-0.435529 -0.42485,-0.580663 -0.29336,-0.244249 -0.31278,-0.287788 -0.26363,-0.58409 0.0477,-0.287584 0.18394,-0.708497 0.47569,-1.471528 0.0543,-0.142014 0.24072,-0.683525 0.41416,-1.203202 0.17345,-0.519677 0.40092,-1.196084 0.50544,-1.503247 0.10452,-0.307165 0.23365,-0.694017 0.28741,-0.859311 0.65937,-2.029217 0.62268,-1.964819 1.10256,-1.93032 0.42143,0.0303 0.93878,-0.135127 1.00126,-0.319831 0.0232,-0.06859 0.0952,-0.12643 0.16027,-0.129064 0.0651,-0.0026 0.21912,-0.171285 0.34222,-0.37434 0.41817,-0.689804 0.29627,-1.691664 -0.26909,-2.21301 l -0.30626,-0.282912 0.10823,-0.57122 c 0.0596,-0.3142 0.13879,-0.613137 0.17635,-0.664488 0.0375,-0.05136 0.15974,-0.402173 0.2715,-0.779536 0.2255,-0.761448 0.69147,-1.895799 0.87609,-2.133196 0.15339,-0.197229 0.30295,-0.480228 0.41169,-0.779007 0.0473,-0.13008 0.11701,-0.237474 0.15478,-0.239004 0.0871,-0.0035 1.01193,0.392938 1.27108,0.544841 0.10744,0.06296 0.19808,0.178915 0.20129,0.2582 0.0125,0.309588 0.62642,1.363393 0.9438,1.619882 0.27379,0.221268 0.3905,0.259329 0.74846,0.244832 0.45371,-0.01838 0.86512,-0.200728 0.93787,-0.416047 0.0649,-0.191903 0.40182,-0.176158 0.93892,0.04369 0.25901,0.106023 0.50816,0.191467 0.55382,0.189617 0.0456,-0.0018 0.0967,0.02592 0.11372,0.06211 0.0513,0.109138 0.65035,0.499641 0.75963,0.495215 0.056,-0.0023 0.31519,0.120984 0.57637,0.273524 0.26116,0.15254 0.50583,0.275864 0.5433,0.274346 0.0375,-0.0015 0.16152,0.08899 0.27551,0.200889 0.11399,0.111895 0.23688,0.202454 0.27295,0.200993 0.12087,-0.0049 1.56731,0.925731 2.12038,1.364322 0.0963,0.07637 0.31231,0.247307 0.4798,0.379321 0.30414,0.239752 0.30446,0.240629 0.3037,0.883988 -5.4e-4,0.424187 0.0305,0.642665 0.0911,0.640209 0.0506,-0.0021 0.0954,0.0439 0.0998,0.101981 0.0122,0.176588 0.38522,0.53994 0.6418,0.625147 0.35356,0.117411 0.82411,0.08231 0.81831,-0.06107 -0.007,-0.17549 0.19392,-0.228958 0.54849,-0.146339 0.17366,0.04045 0.39856,0.0489 0.49986,0.01906 0.18321,-0.05395 0.39315,0.04579 0.82627,0.391148 0.1204,0.096 0.41587,0.327514 0.65648,0.514908 0.24061,0.187394 0.6353,0.51014 0.87671,0.717003 0.24139,0.206865 0.57623,0.479378 0.74445,0.605476 0.16823,0.126097 0.71636,0.594209 1.2177,1.040399 l 0.91156,0.811271 -0.0822,0.319848 c -0.29061,1.135164 0.21446,1.858618 1.28036,1.833815 0.23963,-0.0056 0.55262,-0.04186 0.69544,-0.08092 0.24854,-0.06797 0.30493,-0.02685 1.31015,0.960629 0.57765,0.56746 1.15004,1.127469 1.272,1.244559 1.01564,1.028399 -0.19201,2.418134 -0.60438,3.593591 -0.20414,0.467933 -0.2156,0.477317 -0.84058,0.711558 -2.85954,1.071806 -0.52483,3.254865 -0.44873,3.325073 0.12913,0.119052 0.1588,0.205025 0.10734,0.313206 -0.039,0.08208 -0.25798,0.786309 -0.48641,1.56454 -0.37401,1.274167 -0.48957,1.742241 -0.70829,2.867011 -0.10634,0.546851 -0.52465,1.787299 -0.65935,1.955298 -0.0679,0.08472 -0.26494,0.202816 -0.43779,0.262359 -1.78984,0.616172 -1.13232,2.90864 -0.32294,3.238267 0.19922,0.08122 0.21609,0.121976 0.17711,0.42727 -0.0237,0.1856 -0.0903,0.46612 -0.14854,0.62302 -0.0582,0.15691 -0.13337,0.56421 -0.1666,0.9051 -0.0333,0.34089 -0.0936,0.71633 -0.13429,0.83449 -0.0406,0.11815 -0.0988,0.48251 -0.12907,0.80998 -0.11489,1.2413 -0.39629,3.23562 -0.48631,3.44451 -0.0581,0.13482 -0.31415,0.34101 -0.67365,0.5424 -0.51662,0.28942 -0.60365,0.37648 -0.79431,0.79398 -0.33684,0.73768 -0.22724,1.56302 0.26336,1.98206 0.10419,0.089 0.25607,0.2254 0.33759,0.30337 0.0816,0.078 0.27815,0.17904 0.43681,0.22435 0.23526,0.0671 0.28181,0.11618 0.25073,0.26551 -0.021,0.10083 -0.0619,0.64209 -0.0904,1.2025 -0.0285,0.56041 -0.0693,1.30568 -0.0912,1.65611 -0.0219,0.35042 -0.0135,1.12743 0.0198,1.72661 0.0789,1.43144 0.0201,1.70192 -0.42233,1.94622 -0.75869,0.41888 -1.11298,0.99662 -1.08196,1.76242 0.0347,0.85694 0.55559,1.49567 1.36109,1.66919 l 0.27652,0.0596 0.0857,0.7118 c 0.0474,0.39142 0.12602,1.1486 0.17417,1.68261 0.0482,0.534 0.12687,1.37816 0.17476,1.876 0.12288,1.27662 0.0806,1.50462 -0.32678,1.77736 -0.46291,0.30993 -0.64901,0.68472 -0.6987,1.40505 -0.035,0.5067 -0.0778,0.64143 -0.25788,0.8095 -0.11886,0.11098 -0.27034,0.20386 -0.33609,0.20652 -0.0658,0.003 -0.26017,0.0929 -0.43201,0.20007 -0.58078,0.36219 -1.88448,1.05742 -2.59506,1.3841 -0.93963,0.43157 -1.62855,0.57384 -2.39428,0.49261 -0.74402,-0.0789 -1.44581,0.0263 -1.77199,0.26571 -0.26155,0.19196 -0.49118,0.69627 -0.55424,1.21767 -0.0204,0.16865 -0.0981,0.36638 -0.17253,0.43935 -0.12328,0.12101 -0.76727,0.38799 -2.88302,1.1951 -0.98678,0.37644 -2.27286,0.75815 -2.59354,0.77014 -0.14068,0.005 -0.56338,-0.0537 -0.93933,-0.13057 -0.76893,-0.15723 -1.39082,-0.15183 -1.81782,0.0152 -0.32191,0.12589 -0.67006,0.61587 -0.80099,1.12732 -0.0451,0.17603 -0.14564,0.35703 -0.22368,0.40212 -0.29732,0.17186 -3.60867,1.08678 -4.29937,1.18781 -0.83839,0.12269 -1.31376,0.0847 -1.87932,-0.14938 -0.57516,-0.23787 -1.48885,-0.19736 -1.88641,0.0836 -0.15739,0.11123 -0.2867,0.24012 -0.28681,0.28676 -7.4e-4,0.14611 -0.27573,0.45055 -0.54598,0.60447 -0.51485,0.29322 -3.82902,0.76109 -4.91724,0.69408 -0.61574,-0.0379 -0.66899,-0.0588 -1.11534,-0.42858 l -0.46877,-0.38804 -0.75321,0.0595 -0.7527,0.0589 -0.33299,0.41069 c -0.18293,0.22543 -0.4378,0.45439 -0.56689,0.50963 -0.416,0.1773 -5.20398,0.25666 -6.8533,0.11361 l -0.82885,-0.0714 -0.45525,-0.56495 c -0.27041,-0.33548 -0.53917,-0.58223 -0.66178,-0.60779 -0.11356,-0.024 -0.46624,-0.0178 -0.78406,0.0131 -0.48093,0.0468 -0.63094,0.1 -0.89476,0.31862 -0.29142,0.24154 -0.38367,0.26823 -1.14566,0.32982 -0.5032,0.0406 -1.23724,0.0274 -1.867904,-0.034 -1.073199,-0.10459 -2.911538,-0.40467 -3.120131,-0.50926 -0.06522,-0.0327 -0.247045,-0.27631 -0.403602,-0.54118 -0.398024,-0.67336 -0.617015,-0.80103 -1.328462,-0.77422 -0.317323,0.012 -0.781091,0.0933 -1.030671,0.18086 -0.61609,0.21611 -1.032019,0.21971 -2.060855,0.0162 -1.402642,-0.27742 -4.097035,-1.04698 -4.229871,-1.20804 -0.06555,-0.0795 -0.127157,-0.27754 -0.135751,-0.44032 -0.0194,-0.34715 -0.284161,-0.909 -0.509763,-1.08096 -0.119661,-0.0913 -0.346558,-0.10867 -0.927589,-0.0705 -2.517238,0.16513 -2.320718,0.17131 -3.047345,-0.0912 -0.370125,-0.13373 -0.731346,-0.24087 -0.802488,-0.23799 -0.07116,0.003 -0.303302,-0.10235 -0.515786,-0.23356 -0.212473,-0.13121 -0.436127,-0.23628 -0.497177,-0.23381 -0.06102,0.002 -0.45553,-0.13724 -0.876795,-0.31049 -0.421256,-0.17324 -0.970606,-0.39887 -1.220698,-0.50136 -0.250102,-0.10247 -0.48797,-0.18505 -0.528237,-0.18342 -0.122869,0.005 -0.185525,-0.23407 -0.21544,-0.82446 -0.03534,-0.6865 -0.212372,-1.00183 -0.677331,-1.20865 -0.28155,-0.12528 -0.500733,-0.14017 -1.36398,-0.0932 -0.812914,0.0442 -1.126141,0.0263 -1.495498,-0.0842 -0.520988,-0.15597 -1.166955,-0.43474 -1.367035,-0.59008 -0.07218,-0.056 -0.227896,-0.12684 -0.345641,-0.1572 -0.117736,-0.0304 -0.233856,-0.0799 -0.258396,-0.11004 -0.04023,-0.0494 -0.558914,-0.37951 -1.130776,-0.72016 -0.119395,-0.0711 -0.411064,-0.2089 -0.64803,-0.30631 -0.236975,-0.0974 -0.5566,-0.26426 -0.710105,-0.37051 -0.264701,-0.18323 -0.277288,-0.21466 -0.246254,-0.61479 0.06099,-0.78636 -0.229069,-1.32161 -1.012214,-1.8664 -0.207203,-0.14415 -0.22678,-0.19839 -0.193696,-0.54295 0.02024,-0.21055 0.08465,-0.61388 0.143182,-0.89588 0.0585,-0.282 0.117531,-0.6655 0.130977,-0.85246 0.01345,-0.18697 0.0671,-0.74221 0.119159,-1.23366 0.05204,-0.49146 0.112621,-1.17731 0.134793,-1.52445 0.0447,-0.69867 0.127731,-0.82015 0.634691,-0.92975 0.348634,-0.0754 0.836266,-0.40106 0.830884,-0.55497 -0.0021,-0.0582 0.03618,-0.10749 0.08504,-0.10947 0.152585,-0.006 0.311154,-0.57945 0.291874,-1.0555 -0.02291,-0.56559 -0.252699,-0.90825 -0.859185,-1.28041 -0.237687,-0.14587 -0.468732,-0.32423 -0.513596,-0.39658 -0.09872,-0.15934 -0.117244,-0.78717 -0.06852,-2.30491 0.02022,-0.62999 0.02575,-1.39294 0.01151,-1.6953 -0.01425,-0.30236 -0.04067,-1.00836 -0.05837,-1.56885 l -0.03351,-1.01906 0.477025,-0.25102 c 0.804899,-0.42306 1.197211,-1.23829 1.002708,-2.08453 -0.08604,-0.37431 -0.537874,-0.80495 -1.062432,-1.01204 -0.241516,-0.0953 -0.423646,-0.23173 -0.477928,-0.3587 -0.123951,-0.2901 -0.20836,-0.97445 -0.324089,-2.62609 -0.05532,-0.79003 -0.146257,-1.68284 -0.20187,-1.98351 -0.0556,-0.30069 -0.166815,-1.00647 -0.247122,-1.56845 l -0.14585,-1.021744 0.419852,-0.462302 c 0.299283,-0.32972 0.451566,-0.586772 0.529579,-0.894461 0.255019,-1.006292 -0.0027,-1.531589 -0.948715,-1.933098 -0.622339,-0.264153 -0.617097,-0.251477 -1.232864,-2.908903 -0.324662,-1.401089 -0.533638,-2.24484 -0.664704,-2.684697 -0.06861,-0.230251 -0.173803,-0.626204 -0.233726,-0.880097 l -0.108685,-0.461585 0.276589,-0.27083 c 0.398871,-0.39035 0.835326,-1.326454 0.818019,-1.753812 -0.02399,-0.592335 -0.242791,-0.94909 -0.750331,-1.223277 -0.249201,-0.134626 -0.575734,-0.265931 -0.726053,-0.29177 -0.479007,-0.08242 -0.696509,-0.313302 -0.910107,-0.967003 -0.243563,-0.745414 -0.473381,-1.384224 -0.576427,-1.603211 -0.04302,-0.09147 -0.15029,-0.366811 -0.238363,-0.61149 l -0.159733,-0.445036 0.249581,-0.337487 c 0.65358,-0.944995 1.597114,-1.942913 2.691684,-2.394981 0.08776,-0.0036 0.285676,0.05 0.439784,0.119244 0.188379,0.08463 0.404281,0.106649 0.659043,0.06744 0.751593,-0.115683 1.26076,-0.974706 1.105716,-1.865281 l -0.06947,-0.400077 0.83801,-0.762139 c 2.169108,-1.971947 4.19414,-3.439951 4.621907,-3.350819 1.050491,0.397258 2.201472,0.298502 2.334207,-1.184248 0.09839,-1.388072 6.231363,-4.627663 7.084322,-4.229947 0.872159,0.433132 1.703916,0.314077 2.168397,-0.604487 -0.0056,-0.180679 0.175141,-0.763414 0.267164,-0.861078 0.11349,-0.120438 1.45663,-0.655309 1.666907,-0.663825 z m -25.443832,27.84612 c 0.555675,-0.09958 1.037905,1.268047 1.133659,1.864064 0.0186,0.115762 0.0646,0.380877 0.101952,0.589086 0.03736,0.208208 0.09274,0.587595 0.123084,0.842685 0.03032,0.255102 0.107523,0.706606 0.171495,1.003641 0.06395,0.297044 0.169406,1.131928 0.234418,1.854968 0.131757,1.466164 0.09449,1.681714 -0.331675,1.924444 -0.314598,0.17917 -0.612904,0.61385 -0.724226,1.05595 -0.07326,0.29104 -0.06213,0.4296 0.0648,0.80832 0.195471,0.58323 0.348722,0.74056 1.022568,1.04934 l 0.548574,0.25138 0.07912,3.06475 c 0.08594,3.3387 0.07796,3.41276 -0.394857,3.74853 -0.491934,0.34937 -0.781743,0.96892 -0.707329,1.51143 0.06024,0.43931 0.316987,0.82565 0.545241,0.82041 0.08248,-0.002 0.200074,0.0996 0.26151,0.22526 0.0614,0.12567 0.151516,0.25387 0.200321,0.28512 0.104596,0.067 0.15649,0.88568 0.08768,1.38614 -0.02646,0.19278 -0.05376,0.78517 -0.06048,1.31611 -0.0067,0.53093 -0.02648,1.0229 -0.04363,1.09355 -0.01719,0.0706 -0.05145,0.56333 -0.07616,1.09487 -0.05131,1.10353 -0.129261,1.29124 -0.639837,1.54334 -0.819241,0.40451 -1.169539,0.96453 -1.133338,1.80899 0.01734,0.40084 0.06919,0.57869 0.232445,0.7974 0.261152,0.34988 0.810757,0.71967 1.054847,0.70979 0.176085,-0.007 0.182138,0.016 0.147565,0.56603 -0.0198,0.31538 -0.0737,0.84198 -0.119665,1.17007 -0.244646,1.74502 -0.378394,2.5913 -0.457696,2.89928 -0.04947,0.19207 -0.06486,0.7139 -0.03516,1.18785 0.05264,0.83907 -0.02307,1.31407 -0.210756,1.32167 -0.05379,0.002 -0.27533,0.17371 -0.492452,0.38094 -0.391008,0.37318 -0.395252,0.38281 -0.414034,0.98909 -0.02044,0.66026 0.08763,1.0175 0.40735,1.34888 0.205883,0.21338 0.755081,0.49075 0.955656,0.48262 0.105854,-0.004 0.13831,0.1257 0.170266,0.69234 0.02184,0.3836 0.05846,0.92564 0.08136,1.20434 0.194789,2.37313 0.304553,4.51934 0.240899,4.70958 -0.04079,0.12193 -0.231555,0.33737 -0.423852,0.4785 -0.218509,0.16036 -0.370341,0.3499 -0.405166,0.50567 -0.03061,0.13708 -0.09549,0.27602 -0.144197,0.30891 -0.04871,0.0329 -0.08906,0.24747 -0.08878,0.47683 2.3e-5,0.51952 0.306414,1.1365 0.752872,1.51589 0.338808,0.28793 0.344688,0.28793 1.433183,0.078 0.287521,-0.0555 0.453816,-0.0287 0.833912,0.13277 0.261113,0.11095 0.542291,0.19888 0.624923,0.19553 0.107021,-0.004 5.14563,1.90619 5.651234,2.14346 0,0 -0.266976,1.2748 0.566612,1.68016 0.83359,0.40537 1.530096,-0.82957 2.209777,-0.87251 0.220637,-0.0139 0.476426,0.0118 0.568635,0.0571 0.135439,0.0666 7.11927,1.5836 6.900071,1.66673 -0.08188,2.03976 1.917875,2.1349 2.799931,1.00581 l 0.628756,-0.15683 c 3.350799,0.20202 -0.01783,-0.0293 4.886042,0.0297 l 0.232545,-0.24732 c 0.127861,-0.13598 0.2892,-0.38285 0.358942,-0.54879 0.132863,-0.31623 0.617698,-1.17552 0.772565,-1.36926 0.04969,-0.0621 0.197261,-0.16619 0.335914,-0.17238 2.367828,-0.10582 2.179557,-1.89583 1.433621,-2.56746 l -0.33708,-0.30337 0.23284,-0.8147 c 0.601107,-2.10046 4.085605,-0.96572 6.235436,-0.7992 1.01112,0.15124 0.79579,0.12077 0.99695,0.41682 0.20113,0.29605 0.26796,0.81989 0.46943,1.02985 0.37126,0.38691 0.83118,0.44672 1.28066,0.15604 0.1344,-0.0869 0.35414,-0.34533 0.48825,-0.57419 0.37038,-0.6321 0.53268,-0.69389 1.67262,-0.63769 2.01607,0.0994 3.66394,0.12637 5.77046,0.0942 1.73261,-0.0265 2.19971,-0.01 2.26135,0.0817 0.66529,0.26991 0.39492,1.78777 1.79113,1.34352 0.35676,-0.10505 0.63123,-0.60826 0.85274,-0.9603 0.35644,-0.56646 0.27317,-0.65543 3.35327,-1.00054 1.72735,-0.19354 0.86688,-0.18434 3.52605,-0.43759 0.26786,0.62402 0.50023,1.26039 0.6944,1.88546 0.0333,0.30021 -0.0477,0.34911 -0.26249,0.67005 -0.88797,1.32687 0.31253,2.35844 1.53197,2.65785 0.38057,0.0934 0.57616,1.06293 0.99912,1.81107 0.79003,1.39745 5.88989,-0.12386 5.9098,0.36784 0.003,0.0714 0.0837,0.19199 0.17997,0.26786 0.0963,0.0759 0.17708,0.18368 0.17933,0.23943 0.002,0.0558 0.16431,0.2506 0.35991,0.4328 0.32005,0.29806 0.3973,0.32938 0.77144,0.31423 0.85871,-0.0348 1.22391,-0.69384 1.34958,-1.4883 0.2286,-0.9405 6.28398,-1.23135 7.60134,-1.84596 0.0142,0.028 0.23222,0.22722 0.48444,0.44274 0.43096,0.36828 0.49508,0.39445 1.06486,0.43373 1.54192,0.10632 0.701,-1.09095 1.45788,-1.48338 -0.001,-0.0372 0.13774,-0.12456 0.30969,-0.19407 3.4234,-1.38354 5.56367,-2.22078 6.02264,-2.20974 1.24456,0.15709 3.08201,0.42964 2.82395,-1.60646 -0.0866,-0.42725 -0.14862,-0.52722 -0.534,-0.86225 -0.62114,-0.53999 -0.64935,-0.73933 -0.42634,-3.01811 0.0481,-0.4913 0.13915,-1.6006 0.20271,-2.46537 0.0636,-0.86475 0.14066,-1.62107 0.17088,-1.68054 0.92385,-0.83785 2.80368,-1.73838 0.88602,-3.24193 -0.23416,-0.15772 -0.42719,-0.31896 -0.4288,-0.35862 -0.002,-0.0397 0.0466,-0.33273 0.10706,-0.65135 0.12402,-0.65409 0.0702,-1.36471 -0.17097,-2.26767 -0.0862,-0.32274 -0.22083,-1.15593 -0.29945,-1.85182 -0.0786,-0.69588 -0.16291,-1.41086 -0.18744,-1.58896 -0.0741,-0.53673 2.55698,-1.65334 1.20142,-3.23092 -0.13949,-0.16234 -0.46543,-0.38901 -0.72428,-0.50336 -0.63201,-0.27917 -0.70874,-0.46179 -0.74033,-1.76828 -0.0136,-0.56325 -0.0515,-1.82559 -0.0841,-2.80544 l -0.0598,-1.78189 0.3645,-0.34782 c 0.84216,-0.80319 0.95531,-1.05624 0.82794,-1.85352 -0.0824,-0.51579 -0.18968,-0.66904 -0.65551,-0.938 -0.4447,-0.25674 -0.53255,-0.51199 -0.47517,-1.37613 0.0205,-0.3099 0.0414,-0.84944 0.0466,-1.19918 0.0114,-0.77632 0.2053,-4.07687 0.24831,-4.22566 0.017,-0.059 0.0909,-0.10971 0.16404,-0.11267 0.3601,-0.0146 2.01588,-1.13662 1.24251,-2.523 -0.0682,-0.12216 -0.30414,-0.34039 -0.52391,-0.4851 -0.45248,-0.29796 -0.41921,-0.0821 -0.29513,-1.92389 0.0582,-0.863939 0.26197,-2.216297 0.44962,-2.983758 0.0633,-0.258883 0.15476,-0.809108 0.20287,-1.222573 0.3493,-2.782627 2.27688,-2.356239 2.24095,0.31834 0.12452,0.600823 0.30971,1.541336 0.41149,2.089846 l 0.1847,0.997414 -0.29136,0.289527 c -0.62173,0.617894 -0.75604,0.895884 -0.73108,1.512384 0.0186,0.45867 0.0634,0.61735 0.24264,0.8575 1.28139,1.47675 1.39162,0.0366 1.67326,3.1326 0.1564,1.71921 0.0547,1.74314 -0.39598,2.16287 -1.3645,1.27084 -0.3098,2.83732 0.58748,3.08917 0.37127,0.10422 0.3483,0.1404 0.37388,0.59927 0.0135,0.2408 0.0481,0.68452 0.0772,0.98626 0.0291,0.30175 0.0569,0.58668 0.0608,0.63316 0.0249,0.27618 0.006,2.40491 -0.0223,2.56616 -0.0206,0.11604 -0.20018,0.30554 -0.44639,0.47113 -0.556,0.37395 -0.89129,0.91504 -0.87139,1.40636 0.0623,1.53825 1.3652,1.36058 1.3766,1.97576 0.004,0.15025 -0.0234,0.69387 -0.0597,1.20798 -0.065,0.92115 -0.0625,0.94124 0.16289,1.39137 0.12578,0.25123 0.44639,0.98187 0.71223,1.62357 0.26585,0.6417 0.58685,1.40162 0.71385,1.68867 0.29665,0.67042 0.29639,0.78271 -0.006,1.02583 -1.02294,0.82239 -0.31539,2.65043 0.84863,2.60329 0.42629,-0.0522 0.45896,-0.23632 0.73537,0.26656 0.0834,0.13644 0.28347,0.58587 0.44438,0.9988 0.73783,1.89347 0.93996,2.37863 1.11535,2.67627 0.10341,0.17556 0.19073,0.3802 0.19376,0.45504 0.003,0.0748 0.0903,0.35432 0.19427,0.62102 0.10402,0.26671 0.19132,0.53542 0.19382,0.59727 0.003,0.0618 -0.13979,0.21661 -0.31604,0.3438 -0.22355,0.16131 -0.3691,0.36317 -0.48136,0.66753 -0.41036,1.11242 0.46511,2.05703 1.57863,2.16256 0.70655,0.0669 0.71864,0.18248 0.0779,0.72298 -0.30547,0.25768 -1.26713,1.24864 -2.1373,2.20237 -0.87017,0.95374 -1.69376,1.79705 -1.83046,1.87394 -0.1367,0.0769 -0.6571,0.22364 -1.15616,0.32612 -1.71009,0.35121 -2.13369,0.95918 -1.6775,2.40717 0.11254,0.35718 0.11722,0.34764 -0.41195,0.82349 -0.22484,0.20218 -0.84846,0.83692 -1.38583,1.41065 -0.9594,1.02434 -1.97488,2.03732 -2.42139,2.41558 -0.17109,0.14493 -0.49644,0.24178 -1.3394,0.39869 -1.225,0.22802 -1.40479,0.32072 -1.69307,0.87331 -0.20237,0.38783 -0.21666,0.97694 -0.0365,1.50029 0.11384,0.33067 0.11179,0.33652 -0.20726,0.64195 -0.55043,0.52696 -1.42995,1.3774 -1.83053,1.76999 -0.21081,0.20661 -0.41776,0.37733 -0.45943,0.37909 -0.0417,0.002 -0.25823,0.20579 -0.48123,0.45341 -0.223,0.24762 -0.51581,0.54066 -0.65115,0.65113 -0.35673,0.29117 -1.22982,0.57922 -2.01238,0.66386 -0.76456,0.0827 -1.08218,0.19345 -1.35962,0.47449 -0.39797,0.40314 -0.48223,0.95293 -0.27104,1.77407 0.11084,0.43095 0.10914,0.44115 -0.12112,0.62346 -0.12874,0.10194 -0.43665,0.38762 -0.68387,0.63489 -1.52914,1.52945 -2.70665,2.57925 -3.10579,2.76912 -0.17251,0.0821 -0.71786,0.18112 -1.31691,0.23901 -1.1651,0.11264 -1.31248,0.0945 -1.71395,0.75365 -0.91601,1.50382 0.25708,1.57823 -0.43845,2.36579 -0.16911,0.19148 -0.47285,0.45047 -0.65338,0.59588 -0.38148,0.30724 -2.10216,2.01689 -2.65247,2.63544 -0.20728,0.23298 -0.45372,0.59465 -0.54774,0.80365 -0.18897,0.42013 -0.49465,0.69865 -0.87037,0.79293 -1.17825,0.29574 -1.60107,0.60332 -1.75943,1.27838 -0.15103,0.64391 -0.0521,1.08336 0.32664,1.45041 0.37989,0.36811 0.37311,0.44533 -0.13536,1.56118 -0.26273,0.57655 -0.56059,1.20424 -0.6619,1.39477 -0.10129,0.19051 -0.25789,0.52064 -0.34833,0.73403 -0.0904,0.21338 -0.23402,0.52439 -0.31905,0.69095 -0.085,0.16656 -0.22613,0.47747 -0.31338,0.69073 -0.24686,0.60338 -0.43294,0.76565 -1.17439,1.02504 -1.05793,0.3701 -1.49835,0.89835 -1.47919,1.77439 0.10404,0.504 0.41736,0.85932 0.68254,1.27309 0.13302,0.13553 0.10666,0.19037 -0.39987,0.82817 -0.29824,0.37553 -0.64346,0.8107 -0.76764,0.9672 -0.19999,0.25206 -0.27537,0.2863 -0.65908,0.30184 -0.41168,0.0167 -0.7714,-0.11148 -0.99288,-0.35441 -0.0488,-0.0535 -0.25388,-0.17392 -0.4556,-0.26703 -0.31361,-0.14482 -0.47626,-0.16016 -1.12307,-0.10864 -0.73857,0.0588 -0.76405,0.0675 -1.0655,0.38088 -0.16981,0.1765 -0.43885,0.39708 -0.59819,0.4902 l 2e-5,5.2e-4 c -0.25696,0.15021 -0.5194,0.18022 -2.31971,0.26514 -1.11638,0.0527 -2.25202,0.0712 -2.52376,0.0412 -0.55913,-0.0618 -0.94343,-0.27564 -1.15079,-0.63971 -0.1797,-0.31552 -0.59728,-0.47076 -1.19933,-0.44637 -0.54466,0.0221 -0.81374,0.15509 -1.1834,0.5858 -0.44978,0.52407 -0.56664,0.54514 -3.84803,0.67303 -3.38973,0.13259 -3.52059,0.11798 -3.83152,-0.42615 -0.27086,-0.47399 -0.57156,-0.64505 -1.16574,-0.66392 -0.69433,-0.022 -0.88461,0.0505 -1.33798,0.51034 -0.21534,0.21841 -0.51723,0.43858 -0.67114,0.48955 -0.35787,0.11828 -3.03181,0.22592 -4.299636,0.17258 -1.069967,-0.045 -1.34832,-0.15306 -1.479096,-0.57314 -0.173562,-0.55752 -0.798183,-0.83742 -1.562353,-0.70061 -0.34226,0.0613 -0.498145,0.15335 -0.858171,0.50694 -0.455153,0.44706 -0.57811,0.4898 -1.368776,0.47798 -0.635545,-0.01 -0.757497,-0.11178 -1.246931,-1.04697 -0.559325,-1.06875 -0.64221,-1.39443 -0.405448,-1.59566 0.509552,-0.43306 0.708287,-1.44437 0.392732,-2.00035 -0.196576,-0.34635 -0.388779,-0.46545 -1.112566,-0.69194 -0.848416,-0.26547 -0.932249,-0.38557 -1.847125,-2.63681 -0.195642,-0.48143 -0.437999,-1.02468 -0.53866,-1.20702 -0.100631,-0.18234 -0.214647,-0.45376 -0.253024,-0.60314 -0.03842,-0.14937 -0.105525,-0.29193 -0.149362,-0.31667 -0.09918,-0.0559 -0.53919,-0.91362 -0.545239,-1.06298 -0.0024,-0.0603 0.08759,-0.20371 0.200186,-0.31842 0.11261,-0.11472 0.297611,-0.38234 0.410864,-0.59485 0.184352,-0.34596 0.197889,-0.44416 0.13172,-0.93628 -0.09571,-0.71227 -0.324009,-0.94916 -1.061982,-1.10308 -1.07142,-0.22347 -1.222136,-0.33423 -1.401765,-1.02622 -0.09227,-0.35547 -1.070164,-1.64179 -1.630673,-2.14494 -0.28432,-0.25522 -0.694877,-0.67702 -0.912013,-0.93745 -0.357482,-0.42875 -1.388566,-1.34464 -1.794537,-1.5937 -0.155149,-0.0952 -0.152929,-0.11753 0.05354,-0.56797 0.164818,-0.35948 0.208923,-0.58549 0.190507,-0.96607 -0.04122,-0.84507 -0.453772,-1.15691 -1.664621,-1.25917 -0.378615,-0.032 -0.836053,-0.10396 -1.016528,-0.1595 -0.324458,-0.0999 -1.470491,-1.10342 -3.408146,-2.98527 -0.436616,-0.42405 -0.866393,-0.80627 -0.955487,-0.8488 -0.157319,-0.0751 -0.157362,-0.091 -0.0017,-0.5647 0.08819,-0.2682 0.151876,-0.66678 0.140998,-0.88597 -0.03648,-0.75942 -0.373431,-1.036 -1.449744,-1.18926 -1.644903,-0.23423 -1.573496,-0.19651 -2.984819,-1.57395 -0.366192,-0.35739 -0.782117,-0.74535 -0.924492,-0.86246 -0.142386,-0.11711 -0.359426,-0.33519 -0.481976,-0.48422 -0.122541,-0.14902 -0.525172,-0.55138 -0.894746,-0.89418 l -0.671733,-0.62342 0.140736,-0.45824 c 0.147131,-0.47868 0.16036,-0.8396 0.04928,-1.37565 -0.09111,-0.43986 -0.532818,-0.66241 -1.653565,-0.83294 -0.47884,-0.0729 -0.924298,-0.16077 -0.990067,-0.19574 -0.229659,-0.12209 -0.756509,-0.58406 -0.759844,-0.6664 -0.0018,-0.0456 -0.0523,-0.11167 -0.111956,-0.14649 -0.151557,-0.0885 -1.03746,-1.05615 -1.04492,-1.14152 -0.0102,-0.11371 -0.466663,-0.56474 -0.724612,-0.71592 -0.131281,-0.0769 -0.240205,-0.17168 -0.241799,-0.21104 -0.0031,-0.0769 -0.452102,-0.55072 -1.252872,-1.32136 -0.527932,-0.50808 -0.55301,-0.60381 -0.296248,-1.1341 0.04775,-0.0986 0.07602,-0.44703 0.06278,-0.77418 -0.02183,-0.53908 -0.04786,-0.61691 -0.274121,-0.83037 -0.247605,-0.23359 -0.473913,-0.31457 -1.757478,-0.62754 -0.591915,-0.14433 -0.722871,-0.21562 -1.190862,-0.64583 -0.289299,-0.26596 -0.528439,-0.53323 -0.53092,-0.59448 -0.0025,-0.0613 -0.102402,-0.18242 -0.222434,-0.26924 -0.11997,-0.0868 -0.219313,-0.17943 -0.220377,-0.20571 -0.0037,-0.0916 -0.741536,-0.95675 -0.813378,-0.95384 -0.03987,0.002 -0.07394,-0.0378 -0.07595,-0.0874 -0.002,-0.0497 -0.132722,-0.21048 -0.29012,-0.35701 -0.157398,-0.14652 -0.663128,-0.62878 -1.123804,-1.07161 l -0.837345,-0.80496 0.635451,-0.0682 c 0.583885,-0.0626 0.666661,-0.096 1.01932,-0.41004 0.23259,-0.20712 0.465216,-0.52612 0.589912,-0.8095 l 0.205522,-0.46758 -0.16561,-0.38584 c -0.09104,-0.21221 -0.296054,-0.51921 -0.455865,-0.68233 -0.543679,-0.55489 -0.556386,-0.49329 0.67856,-3.29455 0.251033,-0.56943 0.523166,-1.23077 0.605051,-1.47005 0.0819,-0.23929 0.249538,-0.61815 0.372428,-0.84155 l 0.223522,-0.40625 0.481747,-0.0195 c 0.644031,-0.0261 1.61427,-1.04743 1.4005,-1.92946 -0.03346,-0.13798 -0.182361,-0.41311 -0.330935,-0.61136 -0.148564,-0.19825 -0.27252,-0.4205 -0.275503,-0.49414 -0.0065,-0.15929 0.305952,-0.9226 1.240111,-3.02922 l 0.692372,-1.56151 -0.0426,-1.05177 c -0.04646,-1.1471 -0.01062,-1.25112 0.480318,-1.39569 0.122639,-0.0361 0.221463,-0.11299 0.219634,-0.17026 -0.0018,-0.0573 0.122728,-0.23649 0.276585,-0.39858 0.200286,-0.21101 0.291118,-0.39919 0.319705,-0.66202 0.06789,-0.62407 -0.05239,-0.87614 -0.682646,-1.42928 l -0.577018,-0.50674 0.0866,-1.42474 c 0.0477,-0.78372 0.07793,-1.69136 0.06674,-2.01715 -0.01099,-0.32578 5.93e-4,-0.74557 0.02583,-0.93301 0.03904,-0.29008 0.08016,-0.3466 0.276411,-0.37737 0.131703,-0.0206 0.228661,-0.0878 0.225856,-0.15707 -0.0034,-0.0851 0.09618,-0.12543 0.334323,-0.13508 0.219999,-0.009 0.380061,-0.0676 0.455607,-0.16688 0.581305,-0.76338 0.605395,-0.81843 0.583591,-1.34867 -0.02719,-0.66149 -0.222479,-0.96267 -0.869378,-1.34051 l -0.489995,-0.28633 0.02625,-0.75668 c 0.01452,-0.41631 0.102983,-1.17585 0.196964,-1.6878 0.09394,-0.51195 0.166763,-1.04151 0.161279,-1.17693 -0.01768,-0.43645 0.135071,-0.78217 0.376203,-0.85049 0.88338,-0.25017 1.414717,-0.95266 1.379424,-1.82413 -0.01879,-0.464029 -0.202382,-0.811643 -0.621179,-1.175753 -0.227696,-0.197979 -0.310882,-0.337502 -0.313416,-0.523632 -0.0036,-0.30145 0.192918,-1.502187 0.286097,-1.747269 0.03596,-0.09466 0.07968,-0.267879 0.09715,-0.385101 0.01744,-0.117222 0.100597,-0.559014 0.184695,-0.981862 0.318203,-1.599755 0.678206,-2.188064 1.011611,-2.247811 z m 6.779474,42.695998 c 0.191953,0.044 0.470323,0.14294 0.851572,0.30065 6.558974,2.55802 13.410979,4.38685 20.290825,5.61879 0.745193,0.15528 -0.290912,2.19896 -0.644515,2.43672 -0.253411,0.17042 -1.428758,0.33399 -2.064354,0.28737 -0.163599,-0.012 -0.851803,-0.059 -1.529423,-0.1046 -1.444783,-0.0971 -2.821763,-0.26494 -4.129967,-0.50353 -3.337814,-0.60873 -4.102974,-0.75989 -4.868929,-0.96079 -0.471046,-0.12356 -1.106558,-0.28484 -1.412483,-0.35862 -0.711187,-0.17161 -4.234526,-1.22955 -4.462254,-1.33982 -0.09486,-0.0459 -0.545483,-0.1981 -1.001539,-0.33854 -0.456056,-0.14043 -0.899437,-0.32128 -0.984965,-0.40178 -0.13542,-0.1275 -0.173042,-0.39649 -0.293048,-2.08947 -0.147139,-2.07631 -0.157495,-2.38607 -0.08383,-2.51686 0.03512,-0.0623 0.140955,-0.0735 0.332908,-0.0295 z m 79.596917,0.80791 c 0.23592,0.0349 0.2647,0.37758 0.16193,1.92979 -0.14991,2.26433 -0.17118,2.39977 -0.40737,2.62209 -0.24038,0.22631 -3.98534,1.46429 -8.24791,2.39296 -1.38427,0.30158 -1.89985,0.39123 -4.16518,0.72155 -2.21026,0.32229 -6.2907,0.60229 -7.30102,0.50101 -1.38734,-0.13905 -1.77842,-2.09032 -1.53215,-2.49596 0.0837,-0.13785 0.21531,-0.20555 0.44736,-0.23016 7.73243,-0.991 14.30743,-2.76636 21.04434,-5.44128 z m -82.476699,22.40685 c 0.07254,-0.0787 0.749067,0.25333 1.159307,0.56902 0.212501,0.16354 0.490411,0.34579 0.617903,0.40528 0.360361,0.16821 0.542602,0.47321 0.449372,0.75189 -0.07618,0.2277 -0.02517,0.46183 0.231793,1.06222 0.221394,0.51731 0.998509,0.6722 1.832197,0.36541 l 0.406149,-0.14937 0.564152,0.47004 c 0.310191,0.25866 0.719687,0.60703 0.910053,0.7741 0.190375,0.16705 0.370873,0.30305 0.401148,0.30182 0.0045,-1.8e-4 4.137224,3.467 3.750093,4.06011 -0.351192,0.71267 -0.09124,1.46594 0.376899,2.04004 0.24547,0.17741 0.807216,0.19808 1.264858,0.0465 0.336229,-0.11133 0.686949,0.023 1.000756,0.38305 0.688038,0.78945 1.122494,1.34747 1.708213,2.19506 0.883921,1.27907 1.094662,1.66889 0.996215,1.84171 -1.181448,2.07397 0.463502,2.62858 0.867794,2.64233 0.295129,0.0101 0.619372,0.0317 0.720831,0.0479 0.217808,0.0349 0.523907,0.50554 0.891264,1.37014 0.142998,0.33659 0.357257,0.79654 0.475821,1.02183 0.118524,0.2253 0.218146,0.46988 0.221145,0.54392 0.003,0.074 0.05976,0.20764 0.126323,0.29692 0.191282,0.25639 0.530446,1.28513 0.545368,1.6536 0.01111,0.2743 -0.03846,0.38883 -0.273952,0.62965 -0.332809,0.34036 -0.517592,0.77765 -0.496538,1.17396 0.02727,0.50522 0.245465,1.05382 0.489433,1.23022 0.328758,0.23771 1.006655,0.49236 1.148043,0.43139 0.07791,-0.0336 0.163225,0.0436 0.247506,0.22426 0.190391,0.40837 0.614152,3.3784 0.665026,4.65931 0.0502,1.26366 0.05687,1.24728 -0.642912,1.63346 -2.248299,1.42086 -0.312701,2.49322 0.506703,3.39343 -0.07599,0.95283 -0.641752,1.94126 -0.799646,2.89709 -0.08041,0.17791 -0.263499,0.35401 -0.501778,0.48269 -0.568541,0.26867 -1.206426,0.24626 -1.823069,0.29415 -0.916326,0.0579 -1.468695,0.0612 -1.504149,0.009 -0.03087,-0.0457 -0.02012,-0.27258 0.02354,-0.50418 0.04614,-0.24463 0.0472,-0.61484 0.0025,-0.88345 -0.11074,-0.666 -0.414005,-0.97179 -1.236457,-1.24807 -0.743779,-0.24986 -0.981093,-0.49171 -1.241731,-1.26337 -0.08541,-0.25286 -0.200257,-0.57251 -0.25477,-0.71012 -0.05449,-0.13761 -0.140873,-0.39517 -0.191791,-0.57252 -0.05095,-0.17733 -0.168659,-0.45866 -0.261667,-0.62503 -0.187122,-0.33456 -0.347341,-0.66164 -0.651162,-1.32866 -0.192859,-0.42339 -0.196762,-0.45931 -0.07563,-0.74376 0.06998,-0.16433 0.176439,-0.31969 0.236834,-0.34576 0.06035,-0.026 0.204218,-0.28238 0.319317,-0.56942 0.176561,-0.44023 0.197436,-0.58919 0.134665,-0.95294 -0.128019,-0.74196 -0.369682,-0.97212 -1.34315,-1.27737 -0.34054,-0.10679 -0.680201,-0.24103 -0.755282,-0.29834 -0.195161,-0.14905 -0.438508,-0.67499 -1.029454,-2.22825 -0.285579,-0.75064 -0.600441,-1.50943 -0.699773,-1.68614 -0.23177,-0.4122 -0.184394,-0.75565 0.131504,-0.95436 0.263166,-0.16555 0.382331,-0.52324 0.428881,-1.28655 0.04802,-0.78791 -0.328569,-1.17556 -1.44636,-1.48886 -0.761117,-0.21332 -3.367237,-6.13835 -2.675123,-7.02936 0.429953,-0.55351 0.472534,-1.2888 0.11304,-1.94662 -0.181388,-0.33191 -0.516447,-0.54641 -0.983839,-0.6294 -0.32487,-0.0577 -0.855297,-0.51941 -1.073774,-0.93452 -0.08348,-0.1586 -0.205852,-0.49561 -0.27187,-0.74925 -0.06606,-0.25366 -0.281237,-0.76704 -0.478049,-1.14069 -0.388612,-0.73776 -0.396583,-0.9919 -0.03843,-1.22987 0.400381,-0.26603 0.567587,-1.36673 0.301758,-1.98633 -0.173882,-0.40528 -0.316304,-0.50015 -1.076784,-0.7151 -0.541972,-0.1532 -0.998431,-0.54359 -1.154558,-0.98814 -0.06158,-0.17535 -0.147286,-0.39374 -0.190321,-0.48517 -0.04303,-0.0915 -0.154051,-0.44897 -0.246819,-0.79475 -0.09278,-0.34578 -0.265782,-0.81542 -0.384644,-1.04362 -0.340915,-0.65452 -0.509989,-1.06079 -0.462916,-1.11183 z m 85.034519,0.58821 c 0.0699,0.0205 0.0907,0.11032 0.0602,0.25926 -0.0527,0.25777 -0.45148,1.11076 -0.61256,1.31002 -0.0584,0.0723 -0.21257,0.4346 -0.34236,0.80516 -0.47211,1.34797 -0.70355,1.67777 -1.36631,1.94358 -0.20637,0.0828 -0.48155,0.19481 -0.61107,0.24869 -0.40757,0.16972 -1.46397,1.22064 -0.29542,2.64084 0.33531,0.40754 -0.70727,3.42954 -1.93276,3.81754 -1.02699,0.32513 -1.32893,0.6788 -1.37559,1.61244 0.025,0.78593 0.34422,1.0734 0.81781,1.59965 l -0.24428,0.41744 c -0.79759,1.55452 -1.3544,3.3188 -2.18242,4.88116 0.002,0.0611 -0.13237,0.26985 -0.29929,0.46363 -0.24536,0.28485 -0.41142,0.38487 -0.86895,0.52186 -0.9452,0.283 -1.38504,0.82948 -1.35065,1.67867 0.0214,0.52799 0.29247,1.14722 0.55852,1.27604 0.18431,0.0891 0.3061,0.33633 0.20225,0.40969 -0.10684,0.0754 -0.73709,1.35758 -1.25901,2.56246 -0.52185,1.20473 -0.81418,1.53494 -1.51437,1.71013 -0.56465,0.14127 -1.12471,0.54871 -1.29214,0.93982 -0.0895,0.20909 -0.1232,0.52092 -0.10504,0.96933 0.024,0.59202 0.0532,0.69495 0.27973,0.98167 0.13917,0.17612 0.31793,0.36948 0.39753,0.42971 0.13421,0.10164 0.1341,0.12656 -7.4e-4,0.33931 -0.08,0.12616 -0.16889,0.28702 -0.19754,0.35814 -0.0287,0.0711 -0.1912,0.40194 -0.36122,0.73507 -0.17001,0.33312 -0.34762,0.70284 -0.39497,0.82126 -0.0473,0.11843 -0.17104,0.39994 -0.27515,0.62556 -0.10417,0.22562 -0.18976,0.47641 -0.18946,0.55796 2e-5,0.0815 -0.13182,0.379 -0.29287,0.66041 l -0.29271,0.51147 -0.87214,0.34046 c -0.82914,0.32377 -0.88263,0.35946 -1.08911,0.73041 -0.13848,0.24876 -0.24426,0.62142 -0.29193,1.02861 -0.0505,0.43116 -0.12635,0.68906 -0.2337,0.79353 -0.17143,0.16677 -0.62508,0.20265 -1.66622,0.13161 -1.21945,-0.0832 -1.56505,-0.27518 -1.68038,-0.93323 -0.038,-0.21709 -0.13327,-0.50579 -0.21113,-0.64155 -0.0779,-0.13576 -0.15828,-0.36127 -0.17856,-0.50116 -0.0203,-0.1399 -0.10505,-0.49112 -0.18884,-0.78055 l -0.15215,-0.52602 0.36671,-0.19122 c 0.20169,-0.10498 0.36521,-0.22772 0.36339,-0.27279 -0.002,-0.045 0.13661,-0.22747 0.30786,-0.40553 0.41775,-0.43437 0.603,-0.89926 0.51547,-1.29368 -0.20231,-0.91112 -0.44541,-1.21138 -1.13301,-1.40121 -0.50066,-0.1382 -0.53014,-0.21093 -0.50213,-1.22453 0.0137,-0.49575 0.0629,-1.17485 0.10956,-1.50894 0.18184,-1.30409 0.4377,-2.75834 0.55242,-3.13998 0.29193,-0.971 1.04685,-0.17359 1.93449,-1.79541 0.28078,-0.51302 0.0925,-1.09565 -0.45912,-1.54176 -0.29537,-0.23858 -0.32709,-0.30036 -0.30017,-0.57951 0.0389,-0.40325 1.00431,-2.63276 1.65914,-3.83128 l 0.50892,-0.9319 0.67538,-0.0273 0.67486,-0.0273 0.43986,-0.50449 c 0.55978,-0.64209 0.63359,-1.03732 0.30332,-1.6285 -0.11925,-0.21347 -0.24605,-0.39965 -0.28155,-0.41372 -0.12863,-0.051 -0.0694,-0.26501 0.15112,-0.54658 0.1238,-0.1581 0.29495,-0.40122 0.38051,-0.53984 0.41186,-0.66741 0.67385,-1.04438 1.13572,-1.63531 0.27603,-0.35318 0.63866,-0.82219 0.80548,-1.04166 0.47292,-0.62216 0.63574,-0.72779 1.14717,-0.73949 0.24721,-0.006 0.52609,0.0104 0.6195,0.0359 0.34457,0.0942 0.8259,-0.14457 1.14531,-0.56822 0.28299,-0.37536 0.3037,-0.44434 0.2833,-0.9481 -0.0178,-0.44047 -0.0543,-0.56472 -0.19159,-0.65684 -0.16389,-0.10995 -0.16024,-0.12408 0.10982,-0.43009 0.37666,-0.42681 1.57506,-1.52198 2.06772,-1.88976 0.2198,-0.16406 0.49569,-0.40316 0.6136,-0.53118 0.11791,-0.12803 0.43562,-0.42193 0.70588,-0.65335 0.27026,-0.23142 0.53154,-0.45663 0.58071,-0.50036 0.0492,-0.0437 0.21683,-0.15083 0.37204,-0.23798 0.32336,-0.18169 0.37677,-0.22901 0.94313,-0.8357 0.22894,-0.24524 0.4686,-0.44804 0.53256,-0.45032 0.064,-0.002 0.23373,0.0671 0.37706,0.15385 1.97757,0.81119 1.55155,-1.10187 2.09674,-1.90127 0.12054,-0.078 0.28043,-0.14376 0.35557,-0.1468 0.0752,-0.003 0.29073,-0.11184 0.47845,-0.24125 0.48168,-0.33206 1.33268,-0.74402 1.45985,-0.70664 z m -57.551768,30.65871 c 2.045194,-0.10351 5.817288,-0.12585 6.405718,0.008 0.18816,0.043 0.41756,0.0817 0.50985,0.0869 0.11784,0.006 0.18858,0.094 0.23798,0.2955 0.11904,0.48587 0.58896,1.06749 1.14917,1.0468 0.56022,-0.0204 0.72455,-1.00485 1.51873,-1.20656 0.12906,-0.0328 0.30887,-0.0781 0.39934,-0.10048 0.0905,-0.0224 1.10051,-0.0245 2.2449,-0.005 1.14442,0.0194 3.07256,0.0355 4.2843,0.0359 2.79562,0.001 2.91112,0.0113 3.01803,0.26153 0.046,0.10768 0.13554,0.22524 0.19885,0.26141 0.0633,0.0362 0.16417,0.16659 0.22431,0.28985 0.34407,0.7051 1.52853,0.61176 1.75594,-0.13835 0.1915,-0.63169 0.0436,-0.58668 2.23228,-0.67431 1.71359,-0.0684 5.54834,-0.0119 6.30156,0.0929 0.19374,0.0269 0.26271,0.62053 0.57883,0.99852 0.56048,0.66979 1.19894,0.0154 1.22419,0.6388 0.005,0.12424 -0.0158,1.10403 -0.0468,2.17718 -0.0611,2.1158 -0.1042,2.32075 -0.54713,2.60655 -0.82587,0.53287 -1.0866,0.94568 -1.14164,1.8083 -0.002,0.97372 0.45806,1.82307 1.46784,1.95551 0.36841,0.0974 -0.30365,0.86883 -0.38517,3.52783 -0.0385,1.25374 -0.0599,1.34627 -0.35092,1.51302 -2.53297,1.30077 -5.61915,0.9277 -8.36961,0.74185 -0.13978,-0.0303 -0.52739,-0.17827 -0.86098,-0.32871 -0.83267,-0.37551 -1.43715,-0.39176 -2.26727,-0.0618 -0.33469,0.13305 -0.8693,0.2973 -1.1882,0.36516 -0.70285,0.14957 -3.10765,0.27009 -5.46281,0.27399 -2.50202,0.004 -3.07252,-0.0766 -3.88004,-0.55141 -0.32926,-0.19361 -0.57319,-0.26537 -0.99342,-0.29129 -0.51325,-0.0317 -0.61509,-0.007 -1.29874,0.30447 -0.52865,0.24122 -0.97207,0.37434 -1.542111,0.46328 -1.269445,0.19802 -5.889905,0.19524 -6.484654,-0.004 -0.125988,-0.0421 -0.392119,-0.198 -0.591746,-0.34686 -0.199617,-0.14887 -0.527298,-0.34578 -0.728315,-0.43702 -0.387943,-0.17611 -0.494752,-0.36798 -0.514124,-0.92046 -0.0056,-0.16288 -0.03585,-1.16338 -0.06679,-2.22379 l -0.05586,-1.9284 0.511411,-0.25758 c 1.05452,-0.53112 1.438985,-1.50085 0.971833,-2.451 -0.209428,-0.42597 -0.469053,-0.64299 -1.03586,-0.86675 l -0.385791,-0.15246 -0.01206,-1.66435 c -0.0064,-0.9154 -0.02672,-2.0389 -0.04526,-2.49669 -0.03216,-0.7942 -0.0253,-0.83269 0.147528,-0.83969 0.314361,-0.0127 0.943627,-0.61484 1.176535,-1.12547 0.126683,-0.27777 0.294174,-0.50513 0.408385,-0.55389 0.11614,-0.0496 0.606068,-0.0932 1.287799,-0.12766 z" /></g></svg>
